<?xml version="1.0" encoding="UTF-8"?>
<svg id="_레이어_2" data-name="레이어 2" xmlns="http://www.w3.org/2000/svg" viewBox="0 0 39.6 33.15">
  <defs>
    <style>
      .cls-1 {
        fill: #fff;
      }

      .cls-2 {
        fill: #d78c57;
      }
    </style>
  </defs>
  <g id="_깒귽깂_1" data-name="깒귽깂 1">
    <path class="cls-2" d="m37.35,2.61c-1.24,0-2.25,1.01-2.25,2.25,0,.86.5,1.58,1.2,1.96-5.42,5.02-13.43,5.07-16.47-2.32,1.23-.02,2.22-1.01,2.22-2.25s-1.01-2.25-2.25-2.25-2.25,1.01-2.25,2.25.99,2.23,2.22,2.25c-3.09,7.33-9.63,8-16.46,2.32.7-.38,1.2-1.1,1.2-1.96,0-1.24-1.01-2.25-2.25-2.25S0,3.62,0,4.86s1.01,2.25,2.25,2.25c.38,0,.72-.12,1.04-.29.16.35,4.73,21.57,4.73,21.57h23.55s4.61-21.23,4.74-21.57c.31.17.66.29,1.04.29,1.24,0,2.25-1.01,2.25-2.25s-1.01-2.25-2.25-2.25Z"/>
    <path class="cls-1" d="m20.73,18.86c1.2.27,2.19,1.24,2.19,2.7,0,1.79-1.44,3.25-3.94,3.25-1.14,0-2.16-.3-2.71-.65l.47-1.59c.4.26,1.27.58,2.09.58,1.3,0,1.94-.8,1.94-1.68,0-1.21-1.05-1.78-2.21-1.78h-.73v-1.48h.68c.84,0,1.92-.47,1.92-1.51,0-.75-.5-1.31-1.5-1.31-.74,0-1.47.33-1.88.58l-.44-1.51c.56-.37,1.65-.74,2.8-.74,2.06,0,3.15,1.21,3.15,2.63,0,1.11-.67,2.04-1.85,2.48v.03Z"/>
    <rect class="cls-2" x="8.04" y="29.4" width="23.53" height="3.76"/>
  </g>
</svg>