<?xml version="1.0" encoding="UTF-8"?>
<svg id="_레이어_2" data-name="레이어 2" xmlns="http://www.w3.org/2000/svg" viewBox="0 0 39.6 33.15">
  <defs>
    <style>
      .cls-1 {
        fill: #fff;
      }

      .cls-2 {
        fill: #c6c4c7;
      }
    </style>
  </defs>
  <g id="_깒귽깂_1" data-name="깒귽깂 1">
    <path class="cls-2" d="m37.35,2.61c-1.24,0-2.25,1.01-2.25,2.25,0,.86.5,1.58,1.2,1.96-5.42,5.02-13.43,5.07-16.47-2.32,1.23-.02,2.22-1.01,2.22-2.25s-1.01-2.25-2.25-2.25-2.25,1.01-2.25,2.25.99,2.23,2.22,2.25c-3.09,7.33-9.63,8-16.46,2.32.7-.38,1.2-1.1,1.2-1.96,0-1.24-1.01-2.25-2.25-2.25S0,3.62,0,4.86s1.01,2.25,2.25,2.25c.38,0,.72-.12,1.04-.29.16.35,4.73,21.57,4.73,21.57h23.55s4.61-21.23,4.74-21.57c.31.17.66.29,1.04.29,1.24,0,2.25-1.01,2.25-2.25s-1.01-2.25-2.25-2.25Z"/>
    <path class="cls-1" d="m23.08,24.66h-6.73v-1.3l1.2-1.28c2.04-2.11,3.23-3.49,3.23-4.94,0-.94-.5-1.72-1.68-1.72-.78,0-1.51.41-2.01.78l-.58-1.51c.67-.51,1.78-.97,3.02-.97,2.31,0,3.36,1.47,3.36,3.22,0,1.91-1.3,3.47-2.86,5.05l-.9.88v.03h3.96v1.75Z"/>
    <rect class="cls-2" x="8.04" y="29.4" width="23.53" height="3.76"/>
  </g>
</svg>