<svg version="1.1" xmlns="http://www.w3.org/2000/svg" viewBox="0 0 217.45049606398788 267.40859117948276" width="217.45049606398788" height="267.40859117948276">
  <!-- svg-source:excalidraw -->
  
  <defs>
    <style class="style-fonts">
      @font-face {
        font-family: "Virgil";
        src: url("https://excalidraw.com/Virgil.woff2");
      }
      @font-face {
        font-family: "Cascadia";
        src: url("https://excalidraw.com/Cascadia.woff2");
      }
    </style>
  </defs>
  <g stroke-linecap="round" transform="translate(116.6197296804221 41.08247997624494) rotate(0 31.671577334971516 28.502883057914005)"><path d="M57.66 12.6 C62.26 16.81, 66.09 24.46, 65.26 30.44 C64.44 36.41, 57.81 43.86, 52.72 48.46 C47.64 53.05, 41.3 57.41, 34.77 58.01 C28.24 58.62, 18.93 55.73, 13.55 52.08 C8.16 48.43, 4.12 41.79, 2.46 36.12 C0.8 30.44, 1.17 23.77, 3.57 18.02 C5.98 12.27, 11.05 4.39, 16.9 1.63 C22.75 -1.14, 31 -3.4, 38.68 1.41 C46.36 6.22, 59.95 22.58, 62.99 30.5 C66.03 38.42, 57.72 48.96, 56.93 48.93 M7.58 11.27 C11.66 7.08, 19.38 3.82, 25.98 2.42 C32.59 1.02, 41.74 0.08, 47.24 2.88 C52.73 5.68, 56.71 13.6, 58.94 19.22 C61.18 24.84, 62.61 31.1, 60.66 36.59 C58.71 42.07, 52.67 48.5, 47.25 52.14 C41.82 55.78, 35.24 59.34, 28.11 58.42 C20.97 57.51, 8.8 51.65, 4.43 46.64 C0.06 41.63, 1.79 34.58, 1.91 28.36 C2.02 22.14, 3.63 12.37, 5.11 9.32 C6.58 6.28, 9.75 10.08, 10.77 10.09" stroke="none" stroke-width="0" fill="#fab005"></path><path d="M35.75 0.39 C42.03 0.88, 49.46 5.33, 54.17 9.76 C58.88 14.19, 63.23 20.88, 64.03 26.96 C64.83 33.05, 62.94 41.33, 58.97 46.3 C55 51.27, 46.83 55.3, 40.18 56.79 C33.54 58.27, 25.21 58.12, 19.1 55.23 C12.98 52.35, 6.54 45.21, 3.49 39.47 C0.45 33.74, -0.77 26.76, 0.82 20.84 C2.42 14.92, 5.94 7.27, 13.06 3.95 C20.18 0.64, 37.66 1.02, 43.54 0.95 C49.43 0.89, 48.88 3.22, 48.38 3.57 M42.93 4.25 C48.98 6.19, 57.85 9.51, 60.82 14.56 C63.8 19.62, 62.92 28.79, 60.8 34.58 C58.67 40.37, 53.63 45.62, 48.08 49.29 C42.54 52.96, 33.67 57, 27.53 56.59 C21.4 56.19, 16.27 51.1, 11.27 46.85 C6.26 42.59, -1.73 37.34, -2.49 31.06 C-3.26 24.78, 2.79 14.48, 6.69 9.17 C10.58 3.86, 14.75 0.19, 20.88 -0.77 C27 -1.73, 39.12 3.06, 43.45 3.4 C47.78 3.75, 47.28 1.12, 46.87 1.29" stroke="transparent" stroke-width="2" fill="none"></path></g><g stroke-linecap="round"><g transform="translate(178.49747013594242 93.1569512945407) rotate(0 7.438842277067124 6.212150900040797)"><path d="M2.3 1.54 C5.19 3.16, 13 8.07, 14.77 9.85 M0.11 -0.1 C3.05 1.84, 11.81 9.9, 13.67 12.52" stroke="#fab005" stroke-width="2" fill="none"></path></g></g><mask></mask><g stroke-linecap="round"><g transform="translate(192.57896823896772 72.55589013977806) rotate(0 6.4506194327514095 0.014641477436271089)"><path d="M-1.97 2.58 C0.06 2.71, 12.08 1.73, 14.87 1.78 M2.16 1.51 C3.7 0.71, 11.44 -2.08, 13.34 -2.56" stroke="#fab005" stroke-width="2" fill="none"></path></g></g><mask></mask><g stroke-linecap="round"><g transform="translate(188.53793416394183 43.728513396639755) rotate(0 8.914377320488711 -1.7825788361042214)"><path d="M2.4 2.17 C4.42 1.12, 10.12 -4.96, 12.62 -5.73 M0.26 0.87 C3.05 0.16, 14.83 -1.45, 17.57 -2.74" stroke="#fab005" stroke-width="2" fill="none"></path></g></g><mask></mask><g stroke-linecap="round"><g transform="translate(163.17039013850444 16.71739089514449) rotate(0 -1.5184714542319853 5.193830526319289)"><path d="M2.46 -0.29 C1.75 1.77, -4.37 8.11, -5.49 10.44 M0.34 -2.92 C0.57 -0.33, 0.65 11.29, -0.55 13.31" stroke="#fab005" stroke-width="2" fill="none"></path></g></g><mask></mask><g stroke-linecap="round"><g transform="translate(115.601375423641 11.417087212577826) rotate(0 3.238280981511707 8.428835708323277)"><path d="M-0.22 -1.42 C1.2 1.07, 8.11 12.08, 10.26 14.97 M-3.79 3.99 C-2.92 6.9, 5.27 15.74, 7.91 18.27" stroke="#fab005" stroke-width="2" fill="none"></path></g></g><mask></mask><g stroke-linecap="round"><g transform="translate(90.46336381830588 47.98644507965582) rotate(0 7.221116219457144 3.3584244314406533)"><path d="M-1.96 1.05 C0.56 1.99, 13.31 6.26, 16.4 7.57 M2.17 -0.85 C4.17 -0.97, 11.88 2.12, 13.97 3.03" stroke="#fab005" stroke-width="2" fill="none"></path></g></g><mask></mask><g transform="translate(39.4623430305146 106.92147618918716) rotate(0 59.87866884489358 62.05658009047784)" stroke="none"><path fill="#364fc7" d="M -4.91,-0.33 Q -4.91,-0.33 -4.93,-1.38 -4.95,-2.42 -4.73,-4.62 -4.51,-6.81 -3.50,-9.16 -2.48,-11.51 0.76,-13.73 4.01,-15.94 6.39,-15.56 8.78,-15.17 10.70,-14.21 12.62,-13.24 10.15,-12.63 7.68,-12.01 8.71,-13.98 9.74,-15.94 11.12,-17.80 12.51,-19.66 16.27,-21.13 20.04,-22.59 22.74,-22.10 25.44,-21.60 27.44,-20.69 29.44,-19.77 26.85,-19.30 24.25,-18.83 24.49,-21.10 24.72,-23.38 26.94,-24.89 29.16,-26.40 32.67,-26.78 36.18,-27.17 38.24,-26.34 40.31,-25.51 38.10,-25.50 35.89,-25.48 37.79,-27.24 39.70,-29.01 46.15,-30.37 52.60,-31.73 54.81,-30.13 57.02,-28.53 54.46,-28.57 51.91,-28.61 54.36,-29.82 56.81,-31.04 59.12,-31.98 61.43,-32.93 64.37,-33.06 67.32,-33.18 69.42,-31.99 71.53,-30.80 73.31,-29.01 75.09,-27.22 76.42,-28.95 77.74,-30.68 81.83,-30.27 85.91,-29.86 87.83,-28.62 89.75,-27.38 94.47,-25.78 99.19,-24.18 100.49,-21.15 101.78,-18.12 102.47,-15.99 103.17,-13.85 101.21,-15.06 99.26,-16.26 102.23,-17.25 105.19,-18.24 107.27,-17.31 109.35,-16.38 111.01,-13.12 112.67,-9.86 111.38,-11.87 110.08,-13.88 112.78,-13.66 115.47,-13.44 118.43,-11.57 121.40,-9.71 122.27,-7.12 123.14,-4.54 123.00,-1.84 122.86,0.85 121.27,-2.04 119.67,-4.95 123.42,-3.61 127.17,-2.27 128.40,-0.16 129.64,1.93 129.16,4.72 128.69,7.51 127.30,5.13 125.92,2.75 128.71,2.51 131.51,2.26 133.57,5.18 135.62,8.09 135.50,10.25 135.38,12.41 133.88,9.86 132.39,7.31 136.66,11.64 140.93,15.96 140.75,18.43 140.57,20.89 143.68,23.30 146.79,25.70 147.41,27.96 148.02,30.23 146.94,32.40 145.86,34.58 145.22,32.41 144.57,30.24 145.08,34.48 145.60,38.71 144.88,36.57 144.15,34.44 145.67,37.74 147.19,41.03 146.49,43.39 145.78,45.76 147.29,49.68 148.80,53.60 147.27,55.90 145.75,58.19 143.95,59.51 142.15,60.83 141.38,61.23 140.60,61.62 139.75,61.82 138.91,62.02 138.04,62.01 137.17,62.00 136.32,61.78 135.48,61.56 134.72,61.15 133.95,60.74 133.30,60.15 132.66,59.57 132.17,58.85 131.69,58.12 131.39,57.31 131.09,56.49 130.99,55.62 130.90,54.76 131.01,53.89 131.13,53.03 131.45,52.22 131.77,51.41 132.27,50.70 132.77,49.99 133.43,49.42 134.09,48.85 138.30,48.89 142.51,48.94 144.09,49.71 145.67,50.48 146.42,50.93 147.16,51.39 147.78,52.01 148.39,52.63 148.84,53.38 149.29,54.13 149.54,54.96 149.80,55.80 149.84,56.67 149.89,57.54 149.73,58.40 149.57,59.26 149.21,60.05 148.84,60.85 148.30,61.53 147.76,62.22 147.07,62.75 146.38,63.29 145.58,63.64 144.78,64.00 143.92,64.15 143.06,64.30 142.19,64.24 141.32,64.19 140.49,63.92 139.66,63.66 143.45,63.57 147.24,63.49 149.51,64.36 151.78,65.22 152.99,68.12 154.20,71.02 154.16,73.51 154.12,76.01 152.62,77.84 151.11,79.68 150.76,77.03 150.42,74.38 150.60,80.35 150.79,86.31 148.10,87.09 145.42,87.87 142.81,88.19 140.20,88.51 139.67,88.67 139.14,88.83 138.27,88.86 137.40,88.89 136.55,88.71 135.70,88.53 134.92,88.16 134.14,87.78 133.47,87.23 132.80,86.67 132.28,85.97 131.76,85.28 131.42,84.47 131.09,83.67 130.95,82.81 130.82,81.96 130.89,81.09 130.97,80.22 131.25,79.40 131.53,78.58 132.00,77.85 132.47,77.11 133.10,76.52 133.73,75.92 134.48,75.49 135.24,75.06 136.08,74.82 136.91,74.58 141.36,78.18 145.81,81.77 146.75,83.54 147.70,85.31 148.01,86.11 148.33,86.91 148.44,87.76 148.55,88.61 148.46,89.47 148.36,90.32 148.07,91.13 147.77,91.93 147.29,92.64 146.81,93.35 146.18,93.93 145.54,94.51 144.79,94.91 144.03,95.32 143.20,95.54 142.37,95.75 141.51,95.76 140.65,95.77 139.82,95.57 138.98,95.38 138.22,94.99 137.45,94.60 136.80,94.03 136.16,93.47 135.66,92.77 135.17,92.07 139.28,93.85 143.39,95.64 140.68,96.08 137.96,96.53 139.40,94.30 140.84,92.07 142.82,92.94 144.80,93.80 145.93,95.96 147.06,98.12 144.54,103.21 142.02,108.30 139.32,108.02 136.63,107.74 136.19,107.63 135.74,107.53 134.98,107.13 134.21,106.74 133.56,106.18 132.91,105.62 132.41,104.91 131.91,104.21 131.60,103.41 131.29,102.61 131.17,101.75 131.06,100.90 131.15,100.05 131.25,99.19 131.54,98.38 131.84,97.57 132.32,96.86 132.80,96.15 133.44,95.57 134.08,94.99 134.84,94.58 135.59,94.18 136.43,93.96 137.26,93.74 138.12,93.74 138.98,93.73 139.82,93.92 140.66,94.12 142.65,99.68 144.65,105.24 145.32,108.74 145.99,112.24 146.21,113.24 146.44,114.24 146.50,115.05 146.55,115.86 146.41,116.66 146.27,117.47 145.95,118.21 145.62,118.96 145.12,119.60 144.62,120.25 143.99,120.76 143.35,121.27 142.61,121.61 141.87,121.95 141.07,122.10 140.27,122.25 139.46,122.21 138.64,122.17 137.87,121.93 137.09,121.70 136.38,121.28 135.68,120.87 135.10,120.30 134.52,119.73 134.09,119.03 133.67,118.34 133.42,117.56 133.17,116.79 134.56,119.01 135.96,121.22 136.69,119.13 137.42,117.03 134.39,119.69 131.35,122.34 127.75,121.62 124.16,120.90 127.10,118.80 130.04,116.69 130.02,121.28 129.99,125.87 128.02,127.02 126.05,128.17 122.19,131.13 118.33,134.10 116.23,133.38 114.13,132.67 116.17,133.38 118.21,134.09 116.54,135.84 114.87,137.58 111.71,138.24 108.55,138.89 106.07,137.92 103.59,136.95 107.06,136.92 110.53,136.89 106.60,139.66 102.68,142.42 100.02,140.99 97.37,139.56 99.82,138.68 102.27,137.80 102.42,139.41 102.58,141.01 102.17,141.76 101.76,142.50 101.18,143.13 100.61,143.76 99.90,144.23 99.19,144.70 98.38,144.99 97.58,145.27 96.73,145.36 95.88,145.45 95.04,145.33 94.20,145.21 93.41,144.89 92.61,144.58 91.92,144.08 91.23,143.58 90.68,142.93 90.12,142.29 89.74,141.52 89.36,140.76 89.17,139.93 88.98,139.10 89.00,138.25 89.01,137.39 89.23,136.57 89.45,135.75 87.52,134.85 85.59,133.95 85.24,133.18 84.90,132.41 84.75,131.58 84.60,130.75 84.65,129.91 84.71,129.07 84.96,128.26 85.21,127.46 85.65,126.74 86.09,126.02 86.68,125.43 87.28,124.83 88.00,124.40 88.72,123.96 89.53,123.71 90.33,123.47 91.17,123.42 92.01,123.37 92.84,123.52 93.67,123.67 94.44,124.02 95.21,124.37 95.87,124.89 96.53,125.41 97.05,126.08 97.57,126.74 97.69,130.29 97.82,133.84 97.84,136.31 97.86,138.78 97.72,139.60 97.57,140.42 97.23,141.19 96.90,141.95 96.39,142.61 95.88,143.27 95.22,143.79 94.57,144.31 93.81,144.65 93.05,145.00 92.23,145.16 91.41,145.31 90.58,145.27 89.75,145.22 88.95,144.98 88.15,144.73 87.43,144.31 86.72,143.88 86.12,143.29 85.53,142.71 85.10,142.00 84.66,141.28 84.41,140.49 84.15,139.69 84.10,138.86 84.04,138.03 85.28,140.46 86.51,142.88 85.00,140.46 83.49,138.03 83.22,137.55 82.95,137.06 82.75,136.24 82.56,135.42 82.57,134.57 82.58,133.73 82.79,132.91 83.00,132.09 83.40,131.34 83.80,130.60 84.37,129.97 84.93,129.35 85.63,128.87 86.33,128.40 87.13,128.11 87.92,127.82 88.76,127.72 89.60,127.63 90.44,127.74 91.28,127.85 92.06,128.16 92.85,128.47 93.54,128.95 94.23,129.44 94.79,130.08 95.34,130.72 95.72,131.47 96.11,132.22 95.18,135.92 94.25,139.61 94.37,142.14 94.48,144.66 94.25,145.47 94.02,146.27 93.60,147.00 93.18,147.73 92.60,148.34 92.02,148.94 91.31,149.40 90.60,149.85 89.81,150.11 89.01,150.38 88.17,150.45 87.34,150.52 86.51,150.39 85.68,150.26 84.90,149.93 84.13,149.60 83.46,149.10 82.79,148.60 82.25,147.95 81.72,147.30 81.36,146.54 81.00,145.78 80.83,144.96 80.66,144.14 80.69,143.30 80.72,142.46 78.43,142.95 76.13,143.43 77.10,145.64 78.07,147.84 77.54,148.81 77.01,149.79 76.58,150.47 76.15,151.15 75.57,151.70 74.99,152.26 74.29,152.66 73.60,153.07 72.83,153.29 72.05,153.52 71.25,153.55 70.45,153.58 69.66,153.42 68.87,153.26 68.14,152.92 67.42,152.57 66.79,152.06 66.17,151.55 65.69,150.91 65.20,150.27 64.89,149.53 64.57,148.79 64.44,147.99 64.31,147.20 64.38,146.40 64.44,145.60 64.70,144.83 64.95,144.07 64.02,144.61 63.09,145.14 62.90,144.35 62.72,143.55 62.72,142.74 62.73,141.92 62.93,141.13 63.13,140.34 63.52,139.62 63.90,138.90 64.45,138.30 64.99,137.69 65.67,137.23 66.34,136.77 67.11,136.49 67.88,136.21 68.69,136.12 69.50,136.03 70.30,136.13 71.11,136.24 71.87,136.53 72.63,136.83 73.30,137.30 73.97,137.77 74.50,138.38 75.04,139.00 75.41,139.72 75.79,140.45 74.49,144.29 73.20,148.14 72.16,150.63 71.11,153.11 67.20,153.74 63.29,154.37 61.21,153.05 59.12,151.73 58.78,153.56 58.44,155.39 57.74,155.85 57.04,156.31 56.26,156.59 55.47,156.87 54.64,156.95 53.81,157.03 52.98,156.91 52.16,156.79 51.38,156.48 50.61,156.17 49.93,155.68 49.26,155.19 48.72,154.55 48.18,153.91 47.81,153.17 47.44,152.42 47.26,151.61 47.08,150.79 47.09,149.96 47.11,149.12 47.33,148.32 47.55,147.51 47.95,146.78 48.36,146.05 48.92,145.44 49.49,144.83 49.29,142.50 49.09,140.18 49.37,139.40 49.66,138.63 50.11,137.94 50.57,137.25 51.18,136.70 51.79,136.14 52.52,135.74 53.24,135.35 54.04,135.14 54.84,134.93 55.67,134.92 56.50,134.90 57.30,135.09 58.11,135.28 58.84,135.65 59.58,136.02 60.21,136.56 60.83,137.10 61.31,137.77 61.79,138.44 62.10,139.21 62.40,139.98 62.51,140.80 62.62,141.62 62.54,142.44 62.45,143.26 61.00,145.42 59.55,147.57 58.10,149.59 56.64,151.62 51.00,151.24 45.37,150.87 43.82,147.81 42.28,144.76 45.41,145.56 48.55,146.35 46.52,148.19 44.49,150.03 39.04,150.36 33.59,150.69 31.63,146.55 29.67,142.42 32.98,144.59 36.29,146.77 33.89,148.15 31.48,149.52 30.61,150.03 29.74,150.54 28.98,150.83 28.23,151.12 27.43,151.22 26.63,151.32 25.83,151.22 25.03,151.13 24.27,150.84 23.52,150.56 22.86,150.10 22.19,149.64 21.66,149.04 21.12,148.44 20.74,147.73 20.37,147.01 20.17,146.23 19.98,145.45 19.98,144.64 19.98,143.84 20.17,143.05 20.36,142.27 20.73,141.56 21.10,140.84 21.64,140.24 22.17,139.63 22.83,139.17 23.50,138.71 25.76,135.15 28.02,131.59 28.18,130.90 28.33,130.21 28.80,129.64 29.26,129.06 29.85,128.62 30.44,128.18 31.12,127.89 31.79,127.60 32.52,127.48 33.25,127.36 33.98,127.41 34.71,127.47 35.41,127.70 36.11,127.93 36.74,128.32 37.36,128.72 37.87,129.25 38.38,129.78 38.75,130.41 39.12,131.05 39.33,131.76 39.54,132.46 39.57,133.20 39.60,133.94 39.45,134.66 39.31,135.38 39.00,136.05 38.68,136.71 36.04,138.42 33.40,140.14 31.44,141.12 29.49,142.11 23.39,140.68 17.30,139.25 16.94,135.57 16.59,131.90 18.92,133.60 21.25,135.31 17.11,137.11 12.97,138.91 12.02,139.01 11.06,139.10 10.35,139.26 9.64,139.41 8.91,139.39 8.19,139.37 7.49,139.17 6.79,138.98 6.15,138.62 5.52,138.27 4.99,137.77 4.46,137.27 4.06,136.66 3.67,136.05 3.43,135.37 3.19,134.68 3.13,133.96 3.06,133.23 3.17,132.52 3.28,131.80 3.55,131.13 3.83,130.45 4.26,129.87 4.69,129.28 5.25,128.82 5.80,128.35 6.46,128.03 7.11,127.71 5.18,129.58 3.26,131.44 4.21,129.01 5.15,126.57 8.22,128.99 11.29,131.40 6.85,132.31 2.41,133.22 -2.23,131.38 -6.88,129.55 -7.57,126.49 -8.27,123.43 -7.78,125.51 -7.28,127.58 -9.01,127.62 -10.74,127.66 -11.46,127.38 -12.18,127.10 -12.82,126.66 -13.45,126.22 -13.97,125.64 -14.48,125.06 -14.83,124.37 -15.19,123.68 -15.37,122.93 -15.56,122.18 -15.55,121.41 -15.55,120.63 -15.36,119.88 -15.18,119.13 -14.81,118.44 -14.45,117.76 -13.94,117.18 -13.42,116.60 -12.78,116.17 -12.14,115.73 -11.42,115.46 -10.69,115.19 -9.92,115.10 -9.16,115.00 -8.39,115.10 -7.62,115.20 -10.25,116.15 -12.89,117.11 -10.32,115.67 -7.76,114.24 -5.48,113.66 -3.19,113.08 -1.81,112.52 -0.44,111.96 0.31,111.82 1.07,111.68 1.84,111.72 2.61,111.76 3.35,111.99 4.09,112.22 4.75,112.62 5.41,113.01 5.96,113.56 6.51,114.10 6.91,114.76 7.31,115.42 7.54,116.16 7.78,116.89 7.82,117.66 7.87,118.43 7.74,119.19 7.60,119.95 7.29,120.66 6.97,121.36 6.50,121.97 6.02,122.58 5.42,123.06 4.81,123.54 4.11,123.86 3.40,124.18 0.23,123.47 -2.94,122.77 -5.12,121.84 -7.30,120.90 -9.98,119.27 -12.67,117.63 -14.68,115.98 -16.69,114.32 -18.85,111.16 -21.01,108.00 -22.74,105.63 -24.47,103.27 -26.05,100.53 -27.64,97.79 -27.04,93.75 -26.43,89.71 -23.41,88.04 -20.38,86.36 -22.67,87.35 -24.95,88.35 -25.70,91.17 -26.45,93.99 -26.56,93.79 -26.68,93.58 -26.92,92.78 -27.16,91.97 -27.20,91.13 -27.24,90.29 -27.08,89.47 -26.92,88.65 -26.57,87.88 -26.21,87.12 -25.69,86.47 -25.16,85.81 -24.50,85.30 -23.83,84.79 -23.06,84.45 -22.29,84.12 -21.46,83.98 -20.64,83.83 -19.80,83.89 -18.96,83.95 -18.16,84.21 -17.36,84.47 -16.65,84.91 -15.94,85.36 -15.35,85.96 -14.76,86.56 -14.34,87.28 -13.91,88.00 -17.35,85.89 -20.80,83.78 -23.14,88.13 -25.47,92.49 -27.95,91.07 -30.43,89.64 -30.71,89.30 -31.00,88.95 -31.66,88.46 -32.31,87.98 -32.83,87.34 -33.35,86.71 -33.70,85.97 -34.06,85.23 -34.22,84.43 -34.39,83.63 -34.36,82.82 -34.33,82.00 -34.10,81.21 -33.88,80.42 -33.47,79.71 -33.06,79.00 -32.50,78.41 -31.93,77.82 -31.24,77.38 -30.55,76.94 -29.78,76.68 -29.00,76.42 -28.19,76.35 -27.37,76.28 -26.57,76.41 -25.76,76.54 -25.00,76.86 -24.25,77.18 -21.85,76.61 -19.45,76.04 -17.93,75.90 -16.41,75.76 -15.62,75.83 -14.83,75.91 -14.08,76.17 -13.32,76.44 -12.66,76.87 -11.99,77.31 -11.45,77.89 -10.90,78.47 -10.51,79.17 -10.13,79.86 -9.92,80.63 -9.70,81.40 -9.68,82.19 -9.66,82.99 -9.83,83.77 -10.00,84.55 -10.36,85.26 -10.71,85.97 -11.22,86.58 -11.73,87.19 -12.38,87.66 -13.02,88.13 -13.76,88.43 -14.49,88.74 -15.28,88.85 -16.07,88.97 -18.62,88.68 -21.16,88.38 -21.61,88.33 -22.06,88.27 -22.85,88.09 -23.64,87.90 -24.36,87.54 -25.08,87.17 -25.70,86.64 -26.32,86.11 -26.79,85.45 -27.26,84.79 -27.56,84.04 -27.86,83.29 -27.96,82.48 -28.07,81.68 -27.99,80.87 -27.90,80.06 -27.63,79.30 -27.35,78.54 -26.90,77.86 -26.45,77.19 -25.85,76.64 -25.25,76.10 -24.54,75.71 -23.83,75.32 -23.04,75.11 -22.26,74.91 -21.45,74.90 -20.64,74.88 -19.85,73.49 -19.06,72.10 -18.32,71.75 -17.57,71.39 -16.77,71.22 -15.96,71.06 -15.13,71.09 -14.31,71.12 -13.52,71.34 -12.72,71.57 -12.01,71.98 -11.29,72.39 -10.70,72.96 -10.10,73.53 -9.66,74.23 -9.21,74.92 -8.95,75.70 -8.69,76.48 -8.62,77.31 -8.55,78.13 -8.68,78.94 -8.81,79.76 -9.13,80.52 -9.45,81.28 -9.94,81.94 -10.44,82.60 -11.07,83.12 -11.71,83.65 -16.13,83.06 -20.54,82.47 -23.15,82.07 -25.75,81.67 -26.42,81.25 -27.10,80.83 -27.65,80.25 -28.20,79.68 -28.60,78.99 -29.00,78.30 -29.22,77.54 -29.44,76.78 -29.47,75.98 -29.51,75.19 -29.35,74.41 -29.19,73.63 -28.85,72.91 -28.51,72.19 -28.01,71.58 -27.51,70.96 -26.87,70.48 -26.24,70.00 -25.51,69.69 -24.78,69.38 -23.99,69.25 -23.21,69.12 -22.42,69.18 -21.62,69.25 -20.87,69.50 -20.11,69.75 -22.46,68.76 -24.81,67.77 -24.40,69.94 -24.00,72.11 -25.57,71.08 -27.15,70.06 -27.43,69.27 -27.71,68.48 -27.79,67.65 -27.88,66.82 -27.76,65.99 -27.64,65.16 -27.33,64.38 -27.02,63.61 -26.53,62.93 -26.04,62.25 -25.40,61.71 -24.76,61.17 -24.02,60.80 -23.27,60.42 -22.45,60.24 -21.64,60.05 -20.80,60.07 -19.96,60.09 -19.16,60.30 -18.35,60.52 -17.62,60.93 -16.88,61.33 -16.27,61.90 -15.65,62.46 -15.19,63.16 -14.73,63.86 -16.34,62.18 -17.94,60.50 -17.55,60.49 -17.16,60.47 -16.37,60.74 -15.57,61.02 -14.87,61.48 -14.16,61.94 -13.59,62.55 -13.01,63.17 -12.60,63.90 -12.19,64.64 -11.97,65.45 -11.75,66.26 -11.73,67.10 -11.70,67.94 -11.88,68.76 -12.06,69.58 -12.43,70.33 -12.80,71.09 -13.35,71.73 -13.89,72.38 -14.56,72.87 -15.24,73.37 -16.02,73.69 -16.80,74.01 -17.63,74.13 -18.46,74.25 -19.30,74.17 -20.14,74.09 -22.84,71.34 -25.54,68.59 -27.07,66.97 -28.60,65.34 -28.70,65.24 -28.80,65.14 -29.30,64.46 -29.81,63.77 -30.13,62.99 -30.46,62.20 -30.59,61.36 -30.71,60.52 -30.64,59.67 -30.56,58.83 -30.28,58.02 -30.01,57.22 -29.54,56.51 -29.08,55.79 -28.46,55.21 -27.84,54.63 -27.10,54.21 -26.36,53.79 -25.54,53.56 -24.72,53.34 -23.87,53.31 -23.02,53.28 -22.19,53.46 -21.36,53.64 -20.60,54.01 -19.83,54.39 -19.18,54.93 -18.53,55.47 -23.52,60.41 -28.51,65.34 -29.01,64.65 -29.52,63.97 -29.84,63.18 -30.17,62.39 -30.30,61.55 -30.42,60.71 -30.35,59.87 -30.27,59.02 -29.99,58.22 -29.71,57.41 -29.25,56.70 -28.79,55.98 -28.17,55.40 -27.55,54.82 -26.81,54.40 -26.07,53.98 -25.25,53.75 -24.43,53.53 -23.58,53.50 -22.73,53.47 -21.90,53.65 -21.07,53.83 -20.30,54.20 -19.54,54.58 -18.89,55.12 -18.23,55.67 -24.32,57.90 -30.40,60.13 -31.38,58.62 -32.36,57.11 -32.63,56.30 -32.89,55.49 -32.96,54.65 -33.02,53.80 -32.88,52.96 -32.74,52.13 -32.41,51.35 -32.07,50.57 -31.56,49.89 -31.04,49.22 -30.38,48.68 -29.72,48.15 -28.95,47.79 -28.18,47.43 -27.35,47.26 -26.52,47.10 -25.67,47.13 -24.82,47.17 -24.01,47.41 -23.19,47.65 -22.46,48.08 -21.73,48.51 -21.12,49.10 -20.51,49.69 -20.06,50.41 -19.61,51.13 -19.46,50.04 -19.31,48.95 -18.54,49.33 -17.78,49.72 -17.12,50.27 -16.47,50.83 -15.97,51.53 -15.47,52.23 -15.15,53.02 -14.83,53.82 -14.72,54.67 -14.60,55.52 -14.68,56.37 -14.77,57.22 -15.06,58.03 -15.35,58.84 -15.82,59.55 -16.30,60.27 -16.93,60.85 -17.56,61.43 -18.31,61.84 -19.07,62.25 -19.89,62.47 -20.72,62.69 -21.58,62.71 -22.44,62.73 -23.27,62.54 -24.11,62.35 -26.61,58.50 -29.11,54.65 -28.21,47.54 -27.31,40.43 -29.08,42.82 -30.84,45.21 -31.39,44.04 -31.95,42.87 -32.15,42.04 -32.35,41.22 -32.34,40.38 -32.34,39.53 -32.13,38.71 -31.92,37.89 -31.53,37.14 -31.13,36.39 -30.56,35.76 -30.00,35.13 -29.30,34.66 -28.60,34.18 -27.81,33.89 -27.01,33.59 -26.17,33.49 -25.33,33.40 -24.49,33.51 -23.65,33.61 -22.86,33.92 -22.07,34.22 -21.38,34.71 -20.69,35.19 -20.13,35.83 -19.57,36.47 -19.18,37.22 -18.80,37.97 -20.89,35.88 -22.98,33.79 -24.69,37.45 -26.41,41.11 -27.75,39.34 -29.09,37.57 -29.27,36.74 -29.44,35.91 -29.41,35.06 -29.38,34.21 -29.15,33.40 -28.92,32.58 -28.50,31.85 -28.08,31.11 -27.50,30.49 -26.91,29.88 -26.20,29.42 -25.48,28.96 -24.68,28.69 -23.88,28.41 -23.03,28.34 -22.19,28.27 -21.35,28.40 -20.51,28.53 -19.73,28.86 -18.95,29.19 -18.27,29.69 -17.58,30.20 -17.04,30.85 -16.50,31.50 -16.14,32.27 -15.77,33.03 -17.60,30.96 -19.43,28.89 -18.06,29.43 -16.70,29.97 -15.96,30.41 -15.23,30.85 -14.62,31.45 -14.01,32.05 -13.56,32.78 -13.12,33.51 -12.86,34.33 -12.60,35.14 -12.54,36.00 -12.49,36.85 -12.63,37.69 -12.78,38.53 -13.13,39.32 -13.48,40.10 -14.00,40.78 -14.53,41.45 -15.20,41.98 -15.87,42.52 -16.65,42.87 -17.42,43.23 -18.26,43.39 -19.11,43.55 -19.96,43.50 -20.81,43.45 -21.63,43.20 -22.45,42.95 -24.42,37.45 -26.39,31.94 -26.33,31.07 -26.27,30.20 -26.15,29.37 -26.02,28.54 -25.70,27.76 -25.38,26.98 -24.88,26.30 -24.38,25.63 -23.74,25.09 -23.09,24.55 -22.34,24.18 -21.58,23.81 -20.76,23.63 -19.94,23.46 -19.10,23.48 -18.25,23.51 -17.44,23.73 -16.63,23.96 -15.90,24.37 -15.17,24.78 -14.55,25.36 -13.94,25.93 -13.48,26.64 -13.03,27.35 -12.75,28.14 -12.48,28.94 -12.40,29.77 -12.32,30.61 -13.19,27.88 -14.07,25.14 -17.35,27.52 -20.63,29.89 -21.05,26.76 -21.46,23.62 -21.59,23.01 -21.71,22.40 -21.77,21.56 -21.82,20.72 -21.67,19.89 -21.52,19.06 -21.17,18.29 -20.83,17.53 -20.31,16.86 -19.79,16.20 -19.13,15.68 -18.47,15.16 -17.70,14.82 -16.94,14.47 -16.11,14.32 -15.28,14.16 -14.44,14.21 -13.60,14.26 -12.80,14.51 -12.00,14.76 -11.28,15.20 -10.55,15.63 -9.96,16.22 -9.36,16.82 -8.93,17.54 -8.49,18.26 -8.24,19.06 -7.99,19.86 -8.36,18.32 -8.74,16.78 -8.12,17.36 -7.50,17.94 -7.04,18.65 -6.58,19.36 -6.31,20.15 -6.03,20.95 -5.95,21.79 -5.87,22.63 -6.00,23.47 -6.12,24.30 -6.44,25.09 -6.76,25.87 -7.26,26.55 -7.76,27.23 -8.41,27.77 -9.06,28.31 -9.82,28.69 -10.57,29.06 -11.40,29.24 -12.23,29.42 -13.07,29.39 -13.91,29.37 -14.73,29.14 -15.54,28.92 -16.28,28.51 -17.02,28.09 -18.06,22.60 -19.11,17.11 -18.93,14.98 -18.76,12.85 -18.59,11.53 -18.41,10.22 -18.22,9.40 -18.03,8.59 -17.66,7.84 -17.28,7.09 -16.74,6.46 -16.19,5.82 -15.51,5.33 -14.83,4.85 -14.06,4.54 -13.28,4.23 -12.45,4.11 -11.62,4.00 -10.79,4.08 -9.96,4.17 -9.17,4.45 -8.38,4.74 -7.68,5.20 -6.99,5.66 -6.42,6.28 -5.86,6.90 -5.45,7.63 -5.05,8.37 -4.84,9.18 -4.63,9.98 -4.61,10.82 -4.60,11.66 -6.14,8.36 -7.69,5.06 -4.49,2.84 -1.28,0.62 -2.87,-0.39 -4.46,-1.41 -3.94,-2.40 -3.42,-3.39 -2.62,-4.16 -1.81,-4.93 -0.80,-5.41 0.20,-5.88 1.31,-6.01 2.42,-6.13 3.51,-5.90 4.60,-5.66 5.56,-5.09 6.52,-4.52 7.24,-3.68 7.97,-2.83 8.39,-1.79 8.81,-0.76 8.87,0.34 8.94,1.46 8.65,2.53 8.35,3.61 7.73,4.54 7.11,5.46 6.22,6.14 5.34,6.82 4.28,7.18 3.23,7.55 2.11,7.55 1.00,7.56 -0.05,7.21 -1.11,6.86 -2.00,6.18 -2.89,5.51 -3.53,4.59 -4.16,3.67 -4.46,2.60 -4.76,1.53 -4.71,0.41 -4.65,-0.69 -4.25,-1.73 -3.84,-2.77 -3.12,-3.62 -2.40,-4.48 -1.45,-5.06 -0.49,-5.64 0.58,-5.88 1.67,-6.13 2.78,-6.01 3.89,-5.90 4.91,-5.43 5.92,-4.97 6.74,-4.21 7.55,-3.44 8.08,-2.46 8.60,-1.48 8.79,-0.38 8.98,0.71 8.80,1.82 8.62,2.92 8.63,2.92 8.63,2.92 7.38,5.91 6.14,8.90 2.60,10.42 -0.93,11.94 1.37,11.31 3.67,10.69 1.06,14.12 -1.54,17.55 -5.07,18.47 -8.61,19.39 -11.20,18.47 -13.79,17.56 -16.10,13.89 -18.41,10.22 -18.22,9.40 -18.04,8.59 -17.66,7.84 -17.28,7.09 -16.74,6.46 -16.19,5.82 -15.51,5.33 -14.83,4.85 -14.06,4.54 -13.28,4.23 -12.45,4.11 -11.62,4.00 -10.79,4.08 -9.96,4.17 -9.17,4.45 -8.38,4.74 -7.68,5.20 -6.99,5.66 -6.42,6.28 -5.86,6.90 -5.45,7.63 -5.05,8.37 -4.84,9.18 -4.63,9.98 -4.61,10.82 -4.60,11.66 -4.87,13.06 -5.15,14.46 -6.94,15.62 -8.74,16.78 -8.12,17.36 -7.50,17.94 -7.04,18.65 -6.58,19.35 -6.31,20.15 -6.03,20.95 -5.95,21.79 -5.87,22.63 -6.00,23.47 -6.12,24.30 -6.44,25.08 -6.76,25.87 -7.26,26.55 -7.76,27.23 -8.41,27.77 -9.06,28.31 -9.82,28.69 -10.57,29.06 -11.40,29.24 -12.22,29.42 -13.07,29.39 -13.91,29.37 -14.73,29.14 -15.54,28.92 -16.28,28.51 -17.02,28.09 -17.47,27.81 -17.93,27.53 -19.82,24.96 -21.71,22.40 -21.77,21.56 -21.82,20.72 -21.67,19.89 -21.52,19.06 -21.17,18.29 -20.83,17.53 -20.31,16.86 -19.79,16.20 -19.13,15.68 -18.47,15.16 -17.70,14.82 -16.94,14.47 -16.11,14.32 -15.28,14.16 -14.44,14.21 -13.60,14.26 -12.80,14.51 -12.00,14.76 -11.28,15.20 -10.56,15.63 -9.96,16.22 -9.36,16.82 -8.93,17.54 -8.49,18.26 -8.24,19.06 -7.99,19.86 -7.60,22.10 -7.21,24.33 -6.93,26.84 -6.65,29.34 -7.19,32.09 -7.74,34.84 -13.76,36.33 -19.78,37.82 -23.03,34.01 -26.28,30.20 -26.15,29.37 -26.02,28.54 -25.70,27.76 -25.38,26.98 -24.88,26.30 -24.38,25.63 -23.74,25.09 -23.09,24.55 -22.34,24.18 -21.58,23.81 -20.76,23.63 -19.94,23.46 -19.10,23.48 -18.25,23.51 -17.44,23.73 -16.63,23.96 -15.90,24.37 -15.17,24.78 -14.55,25.36 -13.94,25.93 -13.48,26.64 -13.03,27.35 -12.75,28.14 -12.48,28.94 -12.40,29.77 -12.32,30.61 -12.41,31.48 -12.50,32.35 -14.60,31.16 -16.70,29.97 -15.96,30.41 -15.23,30.85 -14.62,31.45 -14.01,32.05 -13.56,32.78 -13.12,33.51 -12.86,34.33 -12.60,35.14 -12.54,35.99 -12.49,36.85 -12.63,37.69 -12.78,38.53 -13.13,39.32 -13.48,40.10 -14.00,40.78 -14.53,41.45 -15.20,41.98 -15.87,42.52 -16.64,42.87 -17.42,43.23 -18.26,43.39 -19.11,43.55 -19.96,43.50 -20.81,43.45 -21.63,43.20 -22.45,42.95 -23.26,42.57 -24.07,42.19 -26.58,39.88 -29.09,37.57 -29.27,36.74 -29.44,35.91 -29.41,35.06 -29.38,34.22 -29.15,33.40 -28.92,32.58 -28.50,31.85 -28.08,31.11 -27.50,30.49 -26.91,29.88 -26.20,29.42 -25.49,28.96 -24.68,28.69 -23.88,28.41 -23.03,28.34 -22.19,28.27 -21.35,28.40 -20.51,28.53 -19.73,28.86 -18.95,29.19 -18.27,29.69 -17.59,30.20 -17.04,30.85 -16.50,31.50 -16.14,32.27 -15.77,33.03 -15.40,34.20 -15.04,35.37 -14.77,38.37 -14.50,41.37 -17.77,44.78 -21.03,48.19 -23.76,47.78 -26.49,47.37 -29.22,45.12 -31.95,42.87 -32.15,42.04 -32.35,41.22 -32.34,40.38 -32.34,39.53 -32.13,38.71 -31.92,37.89 -31.53,37.14 -31.13,36.40 -30.56,35.77 -30.00,35.14 -29.30,34.66 -28.60,34.18 -27.81,33.89 -27.01,33.59 -26.17,33.49 -25.33,33.40 -24.49,33.51 -23.65,33.61 -22.86,33.92 -22.07,34.22 -21.38,34.71 -20.69,35.19 -20.13,35.83 -19.57,36.47 -19.18,37.22 -18.80,37.97 -18.57,38.60 -18.35,39.23 -17.64,41.40 -16.93,43.57 -17.56,45.87 -18.18,48.17 -19.86,50.22 -21.55,52.27 -19.11,49.82 -16.68,47.36 -15.91,49.72 -15.14,52.09 -17.23,50.52 -19.31,48.95 -18.54,49.33 -17.78,49.72 -17.13,50.27 -16.47,50.83 -15.97,51.53 -15.47,52.22 -15.15,53.02 -14.83,53.82 -14.72,54.67 -14.60,55.52 -14.68,56.37 -14.77,57.22 -15.06,58.03 -15.35,58.84 -15.82,59.55 -16.30,60.27 -16.93,60.85 -17.56,61.43 -18.31,61.84 -19.06,62.25 -19.89,62.47 -20.72,62.69 -21.58,62.71 -22.44,62.73 -23.27,62.54 -24.11,62.35 -26.08,61.64 -28.05,60.93 -30.21,59.02 -32.36,57.11 -32.63,56.30 -32.89,55.50 -32.96,54.65 -33.02,53.80 -32.88,52.96 -32.74,52.13 -32.41,51.35 -32.07,50.57 -31.56,49.89 -31.04,49.22 -30.38,48.68 -29.72,48.15 -28.95,47.79 -28.18,47.43 -27.35,47.26 -26.52,47.10 -25.67,47.13 -24.82,47.17 -24.01,47.41 -23.19,47.65 -22.46,48.08 -21.73,48.51 -21.12,49.10 -20.51,49.69 -20.06,50.41 -19.61,51.13 -19.11,52.28 -18.61,53.43 -17.50,56.33 -16.39,59.23 -22.45,62.28 -28.51,65.34 -29.01,64.65 -29.52,63.97 -29.84,63.18 -30.17,62.40 -30.30,61.55 -30.42,60.71 -30.35,59.87 -30.27,59.02 -29.99,58.22 -29.71,57.41 -29.25,56.70 -28.79,55.98 -28.17,55.40 -27.55,54.82 -26.81,54.40 -26.07,53.98 -25.25,53.75 -24.43,53.53 -23.58,53.50 -22.73,53.47 -21.90,53.65 -21.07,53.83 -20.30,54.20 -19.54,54.58 -18.89,55.12 -18.23,55.67 -23.52,60.40 -28.80,65.14 -29.30,64.46 -29.81,63.77 -30.13,62.99 -30.46,62.20 -30.59,61.36 -30.71,60.52 -30.64,59.67 -30.56,58.83 -30.28,58.02 -30.01,57.22 -29.54,56.51 -29.08,55.79 -28.46,55.21 -27.84,54.63 -27.10,54.21 -26.36,53.79 -25.54,53.56 -24.73,53.34 -23.88,53.31 -23.03,53.28 -22.19,53.46 -21.36,53.64 -20.60,54.01 -19.83,54.39 -19.18,54.93 -18.53,55.47 -17.40,56.79 -16.27,58.10 -14.25,61.26 -12.23,64.42 -14.70,62.44 -17.16,60.47 -16.37,60.74 -15.57,61.02 -14.87,61.48 -14.16,61.94 -13.59,62.55 -13.02,63.17 -12.60,63.90 -12.19,64.63 -11.97,65.44 -11.75,66.26 -11.73,67.10 -11.70,67.94 -11.88,68.76 -12.06,69.58 -12.43,70.33 -12.80,71.09 -13.34,71.73 -13.89,72.38 -14.56,72.87 -15.24,73.37 -16.02,73.69 -16.80,74.01 -17.63,74.13 -18.46,74.25 -19.30,74.17 -20.14,74.09 -20.48,74.09 -20.82,74.09 -23.98,72.07 -27.15,70.06 -27.43,69.27 -27.71,68.48 -27.79,67.65 -27.88,66.82 -27.76,65.99 -27.64,65.16 -27.33,64.39 -27.02,63.61 -26.53,62.93 -26.04,62.25 -25.40,61.71 -24.76,61.17 -24.02,60.80 -23.27,60.42 -22.45,60.24 -21.64,60.05 -20.80,60.07 -19.96,60.09 -19.16,60.30 -18.35,60.52 -17.62,60.92 -16.88,61.33 -16.27,61.90 -15.65,62.46 -15.19,63.16 -14.73,63.86 -14.99,64.05 -15.25,64.25 -14.14,66.67 -13.02,69.09 -13.94,72.96 -14.85,76.84 -20.30,79.25 -25.75,81.67 -26.42,81.25 -27.10,80.83 -27.65,80.25 -28.20,79.68 -28.60,78.99 -29.00,78.31 -29.22,77.54 -29.44,76.78 -29.47,75.98 -29.51,75.19 -29.35,74.41 -29.19,73.63 -28.85,72.91 -28.51,72.19 -28.01,71.58 -27.51,70.96 -26.87,70.48 -26.24,70.00 -25.51,69.69 -24.78,69.38 -23.99,69.25 -23.21,69.12 -22.42,69.18 -21.62,69.25 -20.87,69.50 -20.11,69.75 -15.97,70.84 -11.82,71.94 -15.44,72.02 -19.06,72.10 -18.32,71.75 -17.57,71.39 -16.77,71.22 -15.96,71.06 -15.14,71.09 -14.31,71.12 -13.52,71.34 -12.72,71.57 -12.01,71.98 -11.29,72.39 -10.70,72.96 -10.10,73.53 -9.66,74.23 -9.21,74.92 -8.95,75.70 -8.69,76.48 -8.62,77.31 -8.55,78.13 -8.68,78.94 -8.81,79.76 -9.13,80.52 -9.45,81.28 -9.94,81.94 -10.44,82.60 -11.07,83.12 -11.71,83.65 -12.08,83.97 -12.45,84.29 -14.51,85.45 -16.57,86.61 -19.31,87.44 -22.06,88.27 -22.85,88.09 -23.64,87.90 -24.36,87.54 -25.08,87.17 -25.70,86.64 -26.31,86.11 -26.79,85.45 -27.26,84.79 -27.56,84.04 -27.85,83.29 -27.96,82.48 -28.07,81.68 -27.99,80.87 -27.90,80.07 -27.63,79.30 -27.35,78.54 -26.90,77.87 -26.45,77.19 -25.85,76.64 -25.25,76.10 -24.54,75.71 -23.83,75.32 -23.04,75.11 -22.26,74.91 -21.45,74.90 -20.64,74.88 -18.53,75.32 -16.41,75.76 -15.62,75.83 -14.83,75.91 -14.08,76.17 -13.32,76.44 -12.66,76.87 -11.99,77.31 -11.45,77.89 -10.90,78.47 -10.51,79.17 -10.13,79.86 -9.92,80.63 -9.70,81.40 -9.68,82.19 -9.66,82.99 -9.83,83.77 -10.00,84.54 -10.36,85.26 -10.71,85.97 -11.22,86.58 -11.73,87.19 -12.37,87.66 -13.02,88.13 -13.76,88.43 -14.49,88.74 -15.28,88.85 -16.07,88.97 -17.57,89.03 -19.07,89.09 -21.41,89.25 -23.74,89.42 -27.37,89.19 -31.00,88.95 -31.66,88.47 -32.31,87.98 -32.83,87.34 -33.35,86.71 -33.70,85.97 -34.06,85.24 -34.22,84.43 -34.39,83.63 -34.36,82.82 -34.33,82.00 -34.10,81.21 -33.88,80.42 -33.47,79.72 -33.07,79.01 -32.50,78.41 -31.94,77.82 -31.25,77.38 -30.55,76.94 -29.78,76.68 -29.00,76.42 -28.19,76.35 -27.37,76.28 -26.57,76.41 -25.76,76.54 -25.00,76.86 -24.25,77.18 -23.86,77.66 -23.47,78.14 -21.56,79.19 -19.65,80.25 -16.03,84.32 -12.41,88.40 -15.22,92.93 -18.03,97.45 -22.35,95.52 -26.68,93.58 -26.92,92.78 -27.16,91.97 -27.20,91.13 -27.24,90.29 -27.08,89.47 -26.92,88.65 -26.57,87.88 -26.21,87.12 -25.69,86.47 -25.16,85.81 -24.50,85.30 -23.83,84.79 -23.06,84.45 -22.29,84.12 -21.47,83.98 -20.64,83.83 -19.80,83.89 -18.96,83.95 -18.16,84.21 -17.37,84.47 -16.65,84.91 -15.94,85.36 -15.35,85.96 -14.76,86.56 -14.34,87.28 -13.91,88.00 -13.81,88.21 -13.72,88.43 -13.41,90.65 -13.10,92.87 -13.99,95.12 -14.88,97.37 -17.99,98.70 -21.10,100.04 -19.36,98.51 -17.63,96.98 -16.79,93.87 -15.95,90.75 -15.23,92.75 -14.51,94.75 -12.90,96.64 -11.29,98.52 -9.22,101.81 -7.15,105.11 -5.01,107.35 -2.88,109.60 0.75,110.94 4.38,112.28 1.97,112.12 -0.44,111.96 0.31,111.82 1.07,111.68 1.84,111.72 2.61,111.76 3.35,111.99 4.09,112.22 4.75,112.61 5.41,113.01 5.96,113.56 6.51,114.10 6.91,114.76 7.31,115.42 7.54,116.16 7.78,116.89 7.82,117.66 7.87,118.43 7.74,119.19 7.60,119.95 7.29,120.66 6.97,121.36 6.50,121.97 6.02,122.58 5.42,123.06 4.81,123.54 4.11,123.86 3.40,124.18 1.81,124.67 0.22,125.17 -2.53,125.17 -5.29,125.17 -8.01,126.42 -10.74,127.66 -11.46,127.38 -12.18,127.10 -12.82,126.66 -13.45,126.22 -13.97,125.64 -14.48,125.06 -14.83,124.37 -15.19,123.68 -15.37,122.93 -15.56,122.18 -15.55,121.41 -15.55,120.63 -15.36,119.88 -15.18,119.13 -14.81,118.45 -14.45,117.76 -13.94,117.18 -13.42,116.61 -12.78,116.17 -12.14,115.73 -11.42,115.46 -10.69,115.19 -9.92,115.10 -9.16,115.00 -8.39,115.10 -7.62,115.20 -4.92,116.00 -2.22,116.79 -0.07,118.17 2.06,119.54 2.75,122.21 3.43,124.87 1.85,123.23 0.27,121.58 3.51,120.81 6.75,120.05 9.02,120.09 11.30,120.12 14.33,124.23 17.35,128.34 16.25,130.60 15.15,132.85 13.11,135.98 11.06,139.10 10.35,139.26 9.64,139.41 8.91,139.39 8.19,139.37 7.49,139.17 6.79,138.98 6.15,138.62 5.52,138.27 4.99,137.77 4.46,137.27 4.06,136.66 3.67,136.06 3.43,135.37 3.19,134.68 3.13,133.96 3.06,133.24 3.17,132.52 3.28,131.80 3.55,131.13 3.83,130.45 4.26,129.87 4.69,129.28 5.25,128.82 5.80,128.35 6.46,128.03 7.11,127.71 8.17,127.70 9.22,127.69 12.05,126.63 14.88,125.56 19.10,125.14 23.32,124.71 26.23,128.77 29.13,132.83 28.70,134.91 28.26,137.00 26.08,134.21 23.90,131.41 26.12,130.81 28.33,130.21 28.80,129.64 29.26,129.07 29.85,128.62 30.44,128.18 31.11,127.89 31.79,127.60 32.52,127.48 33.24,127.36 33.98,127.41 34.71,127.47 35.41,127.70 36.11,127.93 36.74,128.32 37.36,128.72 37.87,129.25 38.38,129.78 38.75,130.41 39.12,131.05 39.33,131.76 39.54,132.46 39.57,133.20 39.60,133.94 39.45,134.66 39.31,135.38 39.00,136.05 38.68,136.71 38.49,137.29 38.29,137.87 36.96,140.07 35.62,142.27 32.68,146.41 29.74,150.54 28.98,150.83 28.23,151.12 27.43,151.22 26.63,151.32 25.83,151.22 25.03,151.13 24.28,150.84 23.52,150.56 22.86,150.10 22.19,149.64 21.66,149.04 21.12,148.44 20.74,147.73 20.37,147.01 20.17,146.23 19.98,145.45 19.98,144.64 19.98,143.84 20.17,143.05 20.36,142.27 20.73,141.56 21.10,140.84 21.64,140.24 22.17,139.63 22.83,139.17 23.50,138.71 24.39,138.25 25.28,137.78 27.51,136.52 29.73,135.27 33.07,134.31 36.41,133.34 39.09,137.66 41.77,141.97 39.69,140.23 37.62,138.48 40.13,136.88 42.63,135.27 44.88,134.99 47.13,134.71 50.95,136.70 54.77,138.69 55.50,141.43 56.24,144.17 52.66,142.18 49.09,140.18 49.37,139.40 49.66,138.63 50.11,137.94 50.57,137.25 51.18,136.70 51.79,136.14 52.52,135.74 53.24,135.35 54.04,135.14 54.84,134.93 55.67,134.92 56.49,134.90 57.30,135.09 58.10,135.28 58.84,135.65 59.58,136.02 60.21,136.56 60.83,137.10 61.31,137.77 61.79,138.44 62.10,139.21 62.40,139.98 62.51,140.80 62.62,141.62 62.54,142.44 62.45,143.26 61.81,146.38 61.17,149.51 59.80,152.45 58.44,155.39 57.74,155.85 57.04,156.31 56.26,156.59 55.47,156.87 54.64,156.95 53.81,157.03 52.98,156.91 52.16,156.79 51.38,156.48 50.61,156.17 49.94,155.68 49.26,155.19 48.72,154.55 48.18,153.91 47.81,153.17 47.44,152.42 47.26,151.61 47.08,150.79 47.09,149.96 47.11,149.12 47.33,148.32 47.55,147.51 47.95,146.78 48.36,146.05 48.92,145.44 49.49,144.83 49.78,144.62 50.07,144.42 52.41,142.59 54.76,140.76 57.09,139.72 59.42,138.67 61.93,138.83 64.44,138.98 66.40,141.62 68.35,144.27 64.78,144.50 61.21,144.73 63.06,141.34 64.90,137.95 64.00,141.54 63.09,145.14 62.90,144.35 62.72,143.55 62.72,142.74 62.73,141.92 62.93,141.13 63.13,140.34 63.52,139.62 63.90,138.90 64.45,138.30 64.99,137.69 65.67,137.23 66.34,136.78 67.11,136.49 67.87,136.21 68.68,136.12 69.50,136.03 70.30,136.13 71.11,136.24 71.87,136.53 72.63,136.83 73.30,137.30 73.97,137.77 74.50,138.38 75.04,139.00 75.41,139.72 75.79,140.45 76.27,141.89 76.75,143.33 76.88,146.56 77.01,149.79 76.58,150.47 76.15,151.15 75.57,151.70 74.99,152.26 74.30,152.66 73.60,153.07 72.83,153.29 72.05,153.52 71.25,153.55 70.45,153.58 69.66,153.42 68.87,153.26 68.14,152.92 67.42,152.57 66.79,152.06 66.17,151.55 65.69,150.91 65.20,150.27 64.89,149.53 64.57,148.79 64.44,148.00 64.31,147.20 64.38,146.40 64.44,145.60 64.70,144.84 64.95,144.07 65.61,143.03 66.27,141.99 67.28,140.00 68.30,138.00 69.83,136.00 71.36,134.01 73.90,132.77 76.44,131.54 79.32,131.85 82.20,132.16 84.24,133.35 86.29,134.55 90.38,139.60 94.48,144.66 94.25,145.47 94.02,146.27 93.60,147.00 93.18,147.73 92.60,148.34 92.02,148.94 91.31,149.40 90.60,149.85 89.81,150.11 89.01,150.38 88.17,150.45 87.34,150.52 86.51,150.39 85.68,150.26 84.91,149.93 84.13,149.60 83.46,149.10 82.79,148.60 82.25,147.95 81.72,147.30 81.36,146.54 81.00,145.78 80.83,144.96 80.66,144.14 80.69,143.30 80.72,142.46 81.14,139.32 81.56,136.19 82.63,133.49 83.70,130.79 83.32,133.93 82.95,137.06 82.75,136.24 82.56,135.42 82.57,134.57 82.58,133.73 82.79,132.91 83.00,132.09 83.40,131.34 83.80,130.60 84.36,129.97 84.93,129.35 85.63,128.87 86.33,128.40 87.13,128.11 87.92,127.82 88.76,127.72 89.60,127.63 90.44,127.74 91.27,127.85 92.06,128.16 92.85,128.47 93.54,128.95 94.23,129.44 94.78,130.08 95.34,130.72 95.72,131.47 96.11,132.22 95.56,133.00 95.01,133.78 96.44,136.28 97.86,138.78 97.72,139.60 97.57,140.42 97.24,141.19 96.90,141.95 96.39,142.61 95.88,143.27 95.22,143.79 94.57,144.31 93.81,144.65 93.05,145.00 92.23,145.16 91.41,145.31 90.58,145.27 89.75,145.22 88.95,144.98 88.15,144.73 87.44,144.31 86.72,143.88 86.13,143.29 85.53,142.71 85.10,142.00 84.66,141.29 84.41,140.49 84.15,139.70 84.10,138.86 84.04,138.03 84.82,135.99 85.59,133.95 85.24,133.18 84.90,132.41 84.75,131.58 84.60,130.75 84.65,129.91 84.71,129.07 84.96,128.26 85.21,127.46 85.65,126.74 86.08,126.02 86.68,125.43 87.28,124.83 88.00,124.40 88.72,123.96 89.53,123.71 90.33,123.47 91.17,123.42 92.01,123.37 92.84,123.52 93.67,123.67 94.44,124.02 95.21,124.37 95.87,124.89 96.53,125.41 97.05,126.08 97.57,126.74 98.32,128.03 99.08,129.32 100.20,131.26 101.33,133.19 101.95,137.10 102.58,141.01 102.17,141.76 101.76,142.50 101.18,143.13 100.61,143.76 99.90,144.23 99.19,144.70 98.38,144.99 97.58,145.27 96.73,145.36 95.89,145.45 95.04,145.33 94.20,145.21 93.41,144.89 92.61,144.58 91.92,144.08 91.23,143.58 90.68,142.93 90.12,142.29 89.74,141.52 89.36,140.76 89.17,139.93 88.98,139.10 89.00,138.25 89.01,137.40 89.23,136.57 89.45,135.75 90.22,134.25 90.98,132.75 94.66,129.41 98.33,126.08 102.12,128.27 105.91,130.47 102.86,130.16 99.81,129.84 101.64,127.74 103.46,125.64 106.02,125.36 108.58,125.07 110.63,125.66 112.69,126.24 109.60,126.32 106.52,126.41 108.57,124.30 110.62,122.19 113.40,121.09 116.19,120.00 118.23,121.06 120.27,122.12 117.49,122.29 114.71,122.46 118.13,120.06 121.56,117.67 119.98,119.25 118.40,120.82 118.07,118.33 117.74,115.83 118.72,113.58 119.70,111.34 124.78,110.86 129.85,110.38 127.00,112.18 124.14,113.99 125.30,111.57 126.45,109.15 129.20,107.80 131.96,106.46 136.62,107.63 141.29,108.80 143.87,111.52 146.44,114.24 146.50,115.05 146.55,115.86 146.41,116.66 146.27,117.47 145.95,118.21 145.62,118.96 145.12,119.60 144.62,120.25 143.99,120.76 143.35,121.26 142.61,121.61 141.87,121.95 141.07,122.10 140.27,122.25 139.46,122.21 138.65,122.17 137.87,121.93 137.09,121.70 136.39,121.28 135.68,120.87 135.10,120.30 134.52,119.73 134.10,119.03 133.67,118.34 133.42,117.57 133.17,116.79 132.98,115.78 132.79,114.78 132.28,112.51 131.78,110.23 131.24,106.83 130.71,103.42 133.23,105.47 135.74,107.53 134.98,107.13 134.21,106.74 133.56,106.18 132.91,105.62 132.41,104.91 131.91,104.21 131.60,103.41 131.29,102.61 131.17,101.76 131.06,100.90 131.15,100.05 131.25,99.19 131.54,98.38 131.84,97.58 132.32,96.86 132.80,96.15 133.44,95.57 134.08,94.99 134.83,94.58 135.59,94.18 136.43,93.96 137.26,93.74 138.12,93.74 138.98,93.73 139.82,93.92 140.66,94.12 139.98,94.27 139.30,94.42 136.60,98.77 133.90,103.12 132.54,101.04 131.18,98.96 129.78,96.71 128.39,94.46 128.35,91.57 128.31,88.69 130.40,86.26 132.49,83.83 134.92,83.33 137.35,82.82 142.53,84.07 147.70,85.31 148.01,86.11 148.33,86.91 148.44,87.76 148.55,88.61 148.46,89.47 148.36,90.32 148.07,91.12 147.77,91.93 147.29,92.64 146.81,93.35 146.18,93.93 145.54,94.51 144.79,94.91 144.03,95.32 143.20,95.54 142.37,95.75 141.51,95.76 140.65,95.77 139.82,95.57 138.98,95.38 138.22,94.99 137.45,94.60 136.80,94.03 136.16,93.47 135.66,92.77 135.17,92.07 133.90,89.70 132.64,87.33 135.89,88.08 139.14,88.83 138.27,88.86 137.40,88.89 136.55,88.71 135.70,88.53 134.92,88.16 134.14,87.78 133.47,87.23 132.80,86.67 132.28,85.97 131.76,85.28 131.42,84.47 131.09,83.67 130.95,82.81 130.82,81.96 130.89,81.09 130.97,80.22 131.25,79.40 131.53,78.58 132.00,77.85 132.47,77.11 133.10,76.52 133.73,75.92 134.48,75.49 135.24,75.06 136.08,74.82 136.91,74.58 137.44,74.45 137.96,74.31 141.15,74.05 144.33,73.78 142.99,78.87 141.65,83.95 139.93,80.60 138.22,77.26 139.71,73.79 141.20,70.32 141.48,72.80 141.76,75.28 138.82,72.16 135.89,69.03 134.56,65.63 133.23,62.22 134.02,59.28 134.81,56.34 140.24,53.41 145.67,50.48 146.42,50.93 147.16,51.39 147.78,52.01 148.39,52.63 148.84,53.38 149.29,54.13 149.54,54.96 149.80,55.80 149.84,56.67 149.89,57.54 149.73,58.40 149.57,59.26 149.21,60.05 148.84,60.85 148.30,61.53 147.76,62.22 147.07,62.75 146.38,63.29 145.58,63.64 144.78,64.00 143.92,64.15 143.06,64.30 142.19,64.24 141.32,64.19 140.49,63.92 139.66,63.66 137.93,62.80 136.21,61.95 139.18,61.39 142.15,60.83 141.38,61.23 140.60,61.62 139.76,61.82 138.91,62.02 138.04,62.01 137.17,62.00 136.32,61.78 135.48,61.56 134.72,61.15 133.95,60.74 133.30,60.15 132.66,59.57 132.17,58.85 131.69,58.12 131.39,57.31 131.09,56.49 130.99,55.62 130.90,54.76 131.01,53.90 131.13,53.03 131.45,52.22 131.77,51.41 132.27,50.70 132.77,49.99 133.43,49.42 134.09,48.85 135.54,47.81 137.00,46.76 136.00,49.72 135.00,52.68 133.49,49.74 131.98,46.81 131.95,44.63 131.92,42.46 131.53,40.16 131.15,37.86 133.29,33.71 135.43,29.55 135.44,34.37 135.45,39.19 134.18,36.99 132.91,34.78 133.58,31.25 134.26,27.72 134.50,30.20 134.75,32.68 132.32,30.94 129.90,29.21 128.13,26.28 126.36,23.34 127.19,19.17 128.03,15.00 129.36,18.35 130.68,21.70 128.24,21.10 125.79,20.49 124.04,18.56 122.30,16.64 121.71,12.70 121.13,8.76 121.57,11.74 122.01,14.71 118.75,12.42 115.50,10.13 115.74,6.93 115.97,3.74 116.77,6.30 117.56,8.86 115.27,8.35 112.99,7.84 111.58,6.02 110.18,4.20 109.44,0.40 108.70,-3.39 110.61,-1.34 112.52,0.69 109.85,0.59 107.17,0.50 104.30,-0.74 101.43,-1.99 100.04,-4.68 98.65,-7.38 101.05,-5.65 103.44,-3.92 100.90,-3.69 98.36,-3.47 96.30,-4.20 94.25,-4.92 91.66,-7.80 89.07,-10.68 88.18,-14.01 87.28,-17.35 90.69,-15.40 94.11,-13.45 91.98,-13.08 89.85,-12.71 86.77,-12.92 83.69,-13.14 80.78,-16.20 77.87,-19.26 79.64,-18.05 81.41,-16.84 79.35,-16.22 77.29,-15.60 74.56,-14.96 71.83,-14.31 68.42,-16.40 65.02,-18.48 62.17,-17.10 59.31,-15.71 56.73,-15.24 54.14,-14.77 50.57,-16.04 47.00,-17.32 44.77,-19.08 42.55,-20.84 47.15,-20.40 51.75,-19.97 50.10,-18.50 48.44,-17.03 45.59,-14.67 42.75,-12.31 39.31,-13.11 35.87,-13.90 34.64,-12.16 33.42,-10.43 31.09,-9.03 28.77,-7.63 25.25,-7.62 21.73,-7.61 19.57,-8.89 17.40,-10.16 20.64,-10.78 23.88,-11.41 22.36,-9.62 20.84,-7.84 19.37,-6.00 17.90,-4.16 16.22,-2.52 14.53,-0.87 11.45,-0.87 8.37,-0.86 6.06,-2.34 3.74,-3.82 5.68,-4.77 7.61,-5.72 6.43,-3.73 5.24,-1.73 5.07,-0.70 4.91,0.33 4.80,0.91 4.68,1.49 4.44,2.03 4.19,2.57 3.82,3.04 3.45,3.50 2.98,3.86 2.51,4.23 1.97,4.47 1.43,4.71 0.84,4.81 0.26,4.91 -0.33,4.87 -0.92,4.83 -1.48,4.65 -2.05,4.47 -2.55,4.16 -3.06,3.85 -3.48,3.43 -3.89,3.00 -4.20,2.49 -4.50,1.98 -4.67,1.41 -4.84,0.85 -4.88,0.25 -4.91,-0.33 -4.91,-0.33 L -4.91,-0.33 Z"></path></g><g transform="translate(23.10517583154069 105.90073172313168) rotate(0 55.912968847280354 -13.964076270891383)" stroke="none"><path fill="#000000" d="M -0.90,-4.43 Q -0.90,-4.43 2.99,-5.05 6.89,-5.68 10.73,-6.43 14.58,-7.18 17.60,-8.02 20.62,-8.86 25.29,-10.13 29.96,-11.39 33.11,-12.31 36.27,-13.22 39.22,-14.71 42.18,-16.20 44.47,-17.27 46.75,-18.34 48.99,-19.09 51.24,-19.83 54.00,-20.53 56.76,-21.23 59.26,-21.75 61.75,-22.27 64.44,-22.95 67.12,-23.63 69.88,-24.11 72.64,-24.59 76.24,-24.93 79.83,-25.27 82.54,-25.50 85.24,-25.73 87.95,-26.25 90.65,-26.77 92.81,-27.50 94.97,-28.23 97.10,-29.20 99.24,-30.16 101.23,-31.02 103.22,-31.88 105.98,-32.83 108.75,-33.77 109.79,-33.96 110.83,-34.15 111.88,-33.99 112.93,-33.84 113.87,-33.36 114.81,-32.88 115.55,-32.12 116.29,-31.37 116.75,-30.41 117.21,-29.46 117.34,-28.41 117.47,-27.36 117.26,-26.32 117.05,-25.29 116.52,-24.37 115.99,-23.46 115.19,-22.76 114.40,-22.06 113.42,-21.65 112.44,-21.25 111.39,-21.17 110.33,-21.10 109.31,-21.36 108.29,-21.63 107.40,-22.21 106.52,-22.79 105.86,-23.62 105.21,-24.45 104.85,-25.45 104.50,-26.45 104.48,-27.51 104.47,-28.57 104.79,-29.57 105.11,-30.58 105.74,-31.43 106.36,-32.29 107.23,-32.89 108.10,-33.50 109.11,-33.80 110.13,-34.10 111.18,-34.06 112.24,-34.02 113.23,-33.64 114.22,-33.27 115.04,-32.59 115.85,-31.92 116.41,-31.02 116.97,-30.13 117.22,-29.10 117.46,-28.07 117.36,-27.01 117.27,-25.96 116.84,-24.99 116.41,-24.02 115.69,-23.25 114.98,-22.47 114.05,-21.96 113.12,-21.45 113.12,-21.45 113.12,-21.45 110.32,-20.64 107.52,-19.83 105.37,-19.21 103.22,-18.58 100.91,-17.86 98.61,-17.13 95.58,-16.43 92.55,-15.72 89.32,-15.43 86.09,-15.13 83.70,-14.95 81.31,-14.77 78.06,-14.15 74.81,-13.52 72.12,-12.93 69.43,-12.35 66.62,-12.04 63.80,-11.73 61.68,-11.35 59.56,-10.98 55.86,-10.07 52.17,-9.15 49.91,-8.83 47.65,-8.51 45.14,-7.76 42.62,-7.00 40.42,-6.42 38.21,-5.83 35.18,-5.12 32.14,-4.41 27.39,-2.73 22.64,-1.05 19.49,-0.29 16.34,0.46 12.45,1.50 8.56,2.53 4.73,3.48 0.90,4.43 0.35,4.48 -0.18,4.52 -0.72,4.43 -1.26,4.34 -1.76,4.13 -2.26,3.91 -2.70,3.59 -3.13,3.26 -3.48,2.83 -3.82,2.41 -4.06,1.92 -4.29,1.43 -4.40,0.89 -4.51,0.36 -4.49,-0.18 -4.46,-0.73 -4.31,-1.25 -4.16,-1.77 -3.89,-2.25 -3.61,-2.72 -3.23,-3.11 -2.86,-3.50 -2.39,-3.80 -1.93,-4.09 -1.41,-4.26 -0.90,-4.43 -0.90,-4.43 L -0.90,-4.43 Z"></path></g><g transform="translate(46.34086044054675 99.05504076912803) rotate(0 29.8228471410539 -27.834303183127304)" stroke="none"><path fill="#000000" d="M -5.17,-0.29 Q -5.17,-0.29 -5.12,-2.34 -5.07,-4.39 -5.15,-6.69 -5.24,-9.00 -5.26,-11.16 -5.28,-13.32 -4.81,-16.35 -4.35,-19.38 -3.95,-22.16 -3.55,-24.94 -3.32,-27.42 -3.09,-29.91 -3.10,-32.60 -3.11,-35.30 -3.16,-37.61 -3.21,-39.93 -3.14,-42.88 -3.08,-45.83 -2.34,-48.43 -1.60,-51.02 0.50,-53.12 2.61,-55.22 4.75,-55.98 6.88,-56.74 10.79,-55.96 14.70,-55.18 17.56,-53.99 20.42,-52.81 22.68,-51.08 24.94,-49.36 27.27,-47.97 29.59,-46.59 31.29,-44.95 32.99,-43.31 34.32,-40.46 35.65,-37.62 36.06,-35.42 36.47,-33.23 36.53,-30.72 36.58,-28.22 36.73,-25.76 36.88,-23.31 35.96,-20.82 35.05,-18.33 32.49,-16.69 29.93,-15.06 26.97,-14.75 24.02,-14.45 22.06,-12.56 20.10,-10.67 18.27,-8.22 16.44,-5.77 15.48,-4.65 14.52,-3.53 13.95,-2.80 13.39,-2.08 12.66,-1.50 11.94,-0.93 11.10,-0.55 10.26,-0.17 9.35,-0.00 8.44,0.16 7.52,0.11 6.60,0.06 5.72,-0.20 4.83,-0.47 4.04,-0.95 3.25,-1.42 2.60,-2.07 1.94,-2.72 1.46,-3.51 0.98,-4.30 0.70,-5.18 0.42,-6.06 0.36,-6.98 0.30,-7.90 0.47,-8.81 0.63,-9.72 1.01,-10.56 1.38,-11.41 5.85,-13.09 10.33,-14.76 12.95,-15.09 15.58,-15.41 17.79,-15.70 20.01,-15.98 22.69,-16.39 25.36,-16.80 27.88,-17.12 30.40,-17.44 32.94,-17.64 35.49,-17.84 37.82,-18.12 40.15,-18.41 43.87,-19.06 47.60,-19.72 49.76,-20.08 51.92,-20.45 51.95,-23.14 51.98,-25.82 50.67,-28.31 49.37,-30.80 48.32,-33.01 47.27,-35.22 46.10,-37.69 44.92,-40.15 43.60,-42.07 42.27,-43.98 40.63,-45.35 38.99,-46.72 36.65,-47.51 34.31,-48.30 30.59,-48.43 26.88,-48.56 23.68,-48.11 20.48,-47.65 18.88,-46.10 17.28,-44.55 17.02,-41.58 16.76,-38.62 16.89,-36.30 17.01,-33.97 19.41,-33.41 21.82,-32.84 23.33,-34.35 24.84,-35.86 24.12,-33.25 23.40,-30.64 23.83,-28.48 24.26,-26.31 25.66,-28.40 27.07,-30.49 28.39,-33.17 29.71,-35.84 28.20,-41.08 26.68,-46.31 29.61,-49.07 32.54,-51.84 34.75,-51.53 36.96,-51.22 39.03,-50.10 41.11,-48.97 42.60,-47.16 44.09,-45.35 45.63,-43.12 47.17,-40.88 48.00,-38.28 48.83,-35.69 49.36,-33.50 49.89,-31.31 50.26,-28.05 50.63,-24.78 49.52,-21.82 48.41,-18.86 46.00,-17.00 43.59,-15.15 41.57,-14.47 39.54,-13.80 37.28,-13.03 35.01,-12.27 31.75,-11.64 28.49,-11.01 26.03,-10.75 23.57,-10.49 20.41,-9.79 17.26,-9.08 14.27,-9.29 11.28,-9.49 8.86,-11.28 6.43,-13.07 5.01,-16.61 3.60,-20.15 3.03,-22.51 2.47,-24.88 2.38,-25.58 2.29,-26.28 2.32,-27.19 2.35,-28.09 2.59,-28.96 2.83,-29.83 3.28,-30.62 3.72,-31.41 4.34,-32.07 4.97,-32.73 5.73,-33.22 6.49,-33.71 7.34,-34.01 8.20,-34.30 9.10,-34.38 10.00,-34.46 10.90,-34.33 11.79,-34.19 12.63,-33.85 13.46,-33.50 14.19,-32.96 14.92,-32.43 15.50,-31.73 16.08,-31.03 16.48,-30.22 16.87,-29.41 17.06,-28.52 17.25,-27.64 16.81,-25.36 16.36,-23.09 17.80,-24.88 19.24,-26.67 25.77,-27.90 32.30,-29.14 37.10,-29.00 41.90,-28.87 44.27,-29.01 46.64,-29.15 48.87,-29.36 51.10,-29.57 53.39,-29.88 55.69,-30.18 56.64,-30.18 57.59,-30.19 58.49,-29.89 59.39,-29.59 60.14,-29.02 60.90,-28.45 61.43,-27.67 61.97,-26.88 62.23,-25.97 62.48,-25.06 62.44,-24.11 62.39,-23.16 62.04,-22.28 61.69,-21.40 61.08,-20.67 60.47,-19.95 59.66,-19.46 58.85,-18.96 57.92,-18.76 57.00,-18.55 56.06,-18.65 55.11,-18.75 54.25,-19.14 53.39,-19.54 52.70,-20.19 52.01,-20.84 51.56,-21.67 51.11,-22.51 50.95,-23.44 50.80,-24.38 50.95,-25.31 51.10,-26.25 51.54,-27.09 51.98,-27.93 52.67,-28.58 53.35,-29.24 54.21,-29.64 55.07,-30.04 56.01,-30.15 56.96,-30.25 57.88,-30.05 58.81,-29.85 59.62,-29.37 60.44,-28.88 61.05,-28.16 61.67,-27.44 62.03,-26.56 62.38,-25.68 62.43,-24.73 62.49,-23.79 62.24,-22.87 61.99,-21.96 61.46,-21.17 60.93,-20.38 60.18,-19.81 59.42,-19.23 58.53,-18.93 57.63,-18.62 57.63,-18.62 57.63,-18.62 55.20,-18.32 52.78,-18.02 49.98,-18.13 47.18,-18.25 44.87,-18.16 42.55,-18.06 38.35,-17.38 34.14,-16.70 30.62,-15.53 27.11,-14.37 24.12,-12.37 21.14,-10.38 18.83,-9.72 16.52,-9.06 14.21,-9.09 11.91,-9.13 9.38,-9.99 6.84,-10.85 4.53,-13.37 2.21,-15.90 1.53,-18.84 0.86,-21.78 1.57,-24.03 2.29,-26.28 2.32,-27.18 2.35,-28.09 2.59,-28.96 2.83,-29.83 3.28,-30.62 3.72,-31.41 4.34,-32.07 4.96,-32.73 5.72,-33.22 6.49,-33.71 7.34,-34.01 8.20,-34.30 9.10,-34.38 10.00,-34.46 10.90,-34.33 11.79,-34.19 12.63,-33.85 13.46,-33.50 14.19,-32.96 14.92,-32.43 15.50,-31.73 16.08,-31.03 16.48,-30.22 16.87,-29.41 17.06,-28.52 17.25,-27.64 16.67,-25.57 16.10,-23.50 18.88,-24.35 21.66,-25.19 24.02,-25.43 26.38,-25.67 28.71,-26.10 31.04,-26.53 33.38,-27.08 35.72,-27.63 35.09,-30.42 34.46,-33.21 34.37,-35.42 34.29,-37.63 36.21,-39.93 38.12,-42.23 39.07,-44.20 40.02,-46.16 42.03,-42.10 44.05,-38.03 43.95,-35.57 43.85,-33.11 43.11,-30.80 42.36,-28.50 40.76,-25.35 39.17,-22.21 36.94,-20.10 34.72,-17.99 32.89,-16.22 31.06,-14.46 27.82,-13.18 24.59,-11.89 22.05,-12.08 19.52,-12.27 16.85,-13.96 14.19,-15.65 12.53,-18.14 10.88,-20.63 10.12,-22.94 9.37,-25.25 9.15,-28.03 8.93,-30.81 9.18,-32.96 9.43,-35.10 10.93,-38.66 12.43,-42.22 14.24,-44.09 16.04,-45.97 18.14,-47.82 20.24,-49.67 22.78,-50.82 25.31,-51.97 28.36,-51.64 31.41,-51.31 33.41,-49.89 35.42,-48.48 36.70,-46.33 37.99,-44.18 38.49,-41.99 38.98,-39.80 39.01,-37.65 39.04,-35.50 38.33,-32.11 37.62,-28.73 36.21,-26.69 34.80,-24.65 32.83,-22.92 30.86,-21.18 25.65,-19.72 20.43,-18.26 17.83,-18.82 15.23,-19.38 12.89,-20.54 10.56,-21.70 7.66,-23.76 4.76,-25.82 3.73,-28.85 2.69,-31.88 2.44,-34.90 2.19,-37.92 2.47,-40.62 2.76,-43.32 3.47,-46.71 4.18,-50.11 5.21,-52.07 6.25,-54.04 8.40,-56.54 10.55,-59.03 13.12,-60.03 15.68,-61.02 18.14,-61.51 20.59,-62.00 22.90,-62.39 25.21,-62.77 27.89,-62.79 30.56,-62.81 33.62,-62.81 36.68,-62.81 38.91,-62.35 41.15,-61.90 43.47,-61.00 45.79,-60.10 47.54,-58.61 49.29,-57.12 51.87,-54.62 54.45,-52.13 55.69,-50.29 56.94,-48.46 57.96,-46.53 58.97,-44.60 60.35,-41.58 61.73,-38.55 63.08,-35.74 64.42,-32.93 65.29,-30.74 66.16,-28.55 66.50,-25.88 66.84,-23.21 66.77,-20.95 66.71,-18.68 65.98,-16.13 65.26,-13.57 63.72,-11.64 62.18,-9.72 59.86,-8.63 57.54,-7.53 54.20,-6.65 50.85,-5.77 47.40,-4.93 43.96,-4.09 41.71,-3.73 39.47,-3.36 37.32,-3.21 35.17,-3.06 32.79,-2.77 30.41,-2.47 26.96,-2.06 23.51,-1.65 20.38,-1.20 17.25,-0.76 14.98,-0.40 12.72,-0.05 9.94,0.06 7.15,0.18 10.84,-1.67 14.52,-3.53 13.95,-2.81 13.39,-2.08 12.66,-1.50 11.94,-0.93 11.10,-0.55 10.26,-0.17 9.35,-0.00 8.44,0.16 7.52,0.11 6.60,0.06 5.72,-0.20 4.83,-0.47 4.04,-0.95 3.25,-1.42 2.60,-2.07 1.94,-2.72 1.46,-3.51 0.98,-4.30 0.70,-5.18 0.42,-6.06 0.36,-6.98 0.30,-7.90 0.47,-8.81 0.63,-9.72 1.00,-10.56 1.38,-11.41 1.78,-12.20 2.18,-13.00 3.99,-14.68 5.80,-16.37 7.38,-18.58 8.95,-20.79 10.26,-22.49 11.57,-24.19 13.31,-25.65 15.05,-27.12 17.49,-28.03 19.93,-28.93 22.16,-28.84 24.40,-28.75 23.23,-26.39 22.06,-24.03 21.87,-27.04 21.67,-30.06 21.53,-32.36 21.39,-34.66 19.47,-35.80 17.55,-36.93 15.30,-38.74 13.06,-40.54 11.98,-42.63 10.90,-44.72 10.73,-42.32 10.56,-39.92 10.50,-37.55 10.43,-35.18 10.36,-32.96 10.29,-30.73 9.93,-27.55 9.57,-24.36 8.90,-21.42 8.23,-18.49 7.57,-15.78 6.91,-13.08 6.45,-10.92 5.98,-8.76 5.76,-6.27 5.54,-3.78 5.35,-1.74 5.17,0.29 5.06,0.90 4.95,1.52 4.70,2.09 4.44,2.66 4.06,3.16 3.68,3.65 3.19,4.04 2.69,4.42 2.13,4.68 1.56,4.94 0.94,5.06 0.33,5.17 -0.29,5.14 -0.91,5.10 -1.51,4.92 -2.11,4.73 -2.64,4.41 -3.18,4.09 -3.62,3.65 -4.07,3.21 -4.39,2.67 -4.72,2.14 -4.91,1.54 -5.09,0.95 -5.13,0.32 -5.17,-0.29 -5.17,-0.29 L -5.17,-0.29 Z"></path></g><g transform="translate(52.032891318713155 154.83147042548626) rotate(9.045659941080592 12.521101805541548 11.342637866968289)" stroke="none"><path fill="#364fc7" d="M 0.09,-5.14 Q 0.09,-5.14 3.21,-5.03 6.33,-4.92 9.32,-4.60 12.32,-4.27 14.69,-3.89 17.06,-3.51 19.93,-3.05 22.80,-2.59 25.16,-2.06 27.52,-1.53 29.10,0.51 30.68,2.55 29.76,5.43 28.85,8.31 26.80,11.26 24.75,14.22 22.70,17.22 20.66,20.21 18.81,23.20 16.96,26.18 16.48,26.77 16.00,27.36 15.39,27.81 14.78,28.27 14.08,28.57 13.38,28.87 12.63,28.99 11.88,29.11 11.12,29.05 10.36,28.99 9.64,28.74 8.92,28.50 8.28,28.10 7.63,27.69 7.11,27.14 6.58,26.59 6.20,25.93 5.82,25.27 5.61,24.54 5.40,23.81 5.37,23.05 5.34,22.29 5.49,21.55 5.64,20.80 5.97,20.11 6.30,19.43 7.60,18.27 8.90,17.11 9.88,16.83 10.86,16.54 11.88,16.58 12.90,16.62 13.86,16.99 14.81,17.36 15.60,18.01 16.38,18.66 16.92,19.52 17.46,20.39 17.69,21.39 17.92,22.38 17.83,23.40 17.73,24.41 17.31,25.35 16.89,26.28 16.20,27.03 15.51,27.78 14.61,28.27 13.72,28.76 12.71,28.94 11.71,29.11 10.70,28.96 9.69,28.81 8.78,28.34 7.87,27.88 7.16,27.14 6.45,26.41 6.01,25.49 5.57,24.57 5.45,23.56 5.32,22.54 5.53,21.54 5.74,20.54 6.25,19.66 6.77,18.78 7.54,18.11 8.31,17.44 9.25,17.05 10.19,16.66 11.21,16.59 12.23,16.52 13.22,16.78 14.20,17.04 15.06,17.61 15.91,18.17 16.54,18.97 17.16,19.78 17.50,20.74 17.84,21.70 17.85,22.72 17.87,23.75 17.55,24.72 17.24,25.69 16.63,26.51 16.02,27.33 16.49,26.75 16.96,26.18 16.48,26.77 16.00,27.36 15.39,27.81 14.78,28.27 14.08,28.57 13.38,28.87 12.63,28.99 11.88,29.11 11.12,29.05 10.36,28.99 9.64,28.74 8.92,28.50 8.28,28.10 7.63,27.69 7.11,27.14 6.58,26.59 6.20,25.93 5.82,25.27 5.61,24.54 5.40,23.81 5.37,23.05 5.34,22.29 5.49,21.55 5.64,20.80 5.97,20.11 6.30,19.43 7.45,17.60 8.60,15.78 10.50,12.98 12.39,10.17 14.41,7.36 16.43,4.54 18.65,2.20 20.87,-0.14 20.12,2.38 19.38,4.91 21.04,6.84 22.70,8.77 20.41,8.06 18.12,7.35 14.64,6.47 11.16,5.59 8.64,5.27 6.13,4.95 3.01,4.94 -0.09,4.93 -0.69,4.84 -1.29,4.76 -1.86,4.53 -2.42,4.31 -2.92,3.95 -3.41,3.60 -3.80,3.14 -4.20,2.67 -4.47,2.13 -4.74,1.59 -4.87,0.99 -5.01,0.40 -5.00,-0.20 -4.98,-0.80 -4.83,-1.39 -4.67,-1.98 -4.38,-2.51 -4.09,-3.04 -3.67,-3.49 -3.26,-3.93 -2.76,-4.27 -2.25,-4.61 -1.68,-4.81 -1.11,-5.01 -0.50,-5.08 0.09,-5.14 0.09,-5.14 L 0.09,-5.14 Z"></path></g><g transform="translate(122.23585935353913 127.12588274870723) rotate(184.41155455295157 12.521101805541548 11.342637866968289)" stroke="none"><path fill="#364fc7" d="M 0.09,-5.14 Q 0.09,-5.14 3.21,-5.03 6.33,-4.92 9.32,-4.60 12.32,-4.27 14.69,-3.89 17.06,-3.51 19.93,-3.05 22.80,-2.59 25.16,-2.06 27.52,-1.53 29.10,0.51 30.68,2.55 29.76,5.43 28.85,8.31 26.80,11.26 24.75,14.22 22.70,17.22 20.66,20.21 18.81,23.20 16.96,26.18 16.48,26.77 16.00,27.36 15.39,27.81 14.78,28.27 14.08,28.57 13.38,28.87 12.63,28.99 11.88,29.11 11.12,29.05 10.36,28.99 9.64,28.74 8.92,28.50 8.28,28.10 7.63,27.69 7.11,27.14 6.58,26.59 6.20,25.93 5.82,25.27 5.61,24.54 5.40,23.81 5.37,23.05 5.34,22.29 5.49,21.55 5.64,20.80 5.97,20.11 6.30,19.43 7.60,18.27 8.90,17.11 9.88,16.83 10.86,16.54 11.88,16.58 12.90,16.62 13.86,16.99 14.81,17.36 15.60,18.01 16.38,18.66 16.92,19.52 17.46,20.39 17.69,21.39 17.92,22.38 17.83,23.40 17.73,24.41 17.31,25.35 16.89,26.28 16.20,27.03 15.51,27.78 14.61,28.27 13.72,28.76 12.71,28.94 11.71,29.11 10.70,28.96 9.69,28.81 8.78,28.34 7.87,27.88 7.16,27.14 6.45,26.41 6.01,25.49 5.57,24.57 5.45,23.56 5.32,22.54 5.53,21.54 5.74,20.54 6.25,19.66 6.77,18.78 7.54,18.11 8.31,17.44 9.25,17.05 10.19,16.66 11.21,16.59 12.23,16.52 13.22,16.78 14.20,17.04 15.06,17.61 15.91,18.17 16.54,18.97 17.16,19.78 17.50,20.74 17.84,21.70 17.85,22.72 17.87,23.75 17.55,24.72 17.24,25.69 16.63,26.51 16.02,27.33 16.49,26.75 16.96,26.18 16.48,26.77 16.00,27.36 15.39,27.81 14.78,28.27 14.08,28.57 13.38,28.87 12.63,28.99 11.88,29.11 11.12,29.05 10.36,28.99 9.64,28.74 8.92,28.50 8.28,28.10 7.63,27.69 7.11,27.14 6.58,26.59 6.20,25.93 5.82,25.27 5.61,24.54 5.40,23.81 5.37,23.05 5.34,22.29 5.49,21.55 5.64,20.80 5.97,20.11 6.30,19.43 7.45,17.60 8.60,15.78 10.50,12.98 12.39,10.17 14.41,7.36 16.43,4.54 18.65,2.20 20.87,-0.14 20.12,2.38 19.38,4.91 21.04,6.84 22.70,8.77 20.41,8.06 18.12,7.35 14.64,6.47 11.16,5.59 8.64,5.27 6.13,4.95 3.01,4.94 -0.09,4.93 -0.69,4.84 -1.29,4.76 -1.86,4.53 -2.42,4.31 -2.92,3.95 -3.41,3.60 -3.80,3.14 -4.20,2.67 -4.47,2.13 -4.74,1.59 -4.87,0.99 -5.01,0.40 -5.00,-0.20 -4.98,-0.80 -4.83,-1.39 -4.67,-1.98 -4.38,-2.51 -4.09,-3.04 -3.67,-3.49 -3.26,-3.93 -2.76,-4.27 -2.25,-4.61 -1.68,-4.81 -1.11,-5.01 -0.50,-5.08 0.09,-5.14 0.09,-5.14 L 0.09,-5.14 Z"></path></g><g transform="translate(92.70877279272281 186.79158786650623) rotate(0 17.296358685817722 -6.284463164791305)" stroke="none"><path fill="#364fc7" d="M 0,-5.31 Q 0,-5.31 2.39,-5.33 4.79,-5.36 8.42,-5.48 12.04,-5.60 14.81,-5.73 17.58,-5.85 19.65,-7.35 21.72,-8.84 23.80,-10.80 25.87,-12.75 26.98,-13.39 28.09,-14.04 28.49,-15.04 28.90,-16.03 29.60,-16.85 30.31,-17.67 31.23,-18.22 32.16,-18.77 33.21,-18.99 34.27,-19.22 35.34,-19.10 36.41,-18.97 37.39,-18.51 38.36,-18.06 39.14,-17.31 39.92,-16.56 40.42,-15.61 40.92,-14.65 41.08,-13.59 41.25,-12.52 41.07,-11.46 40.89,-10.40 40.38,-9.45 39.87,-8.50 39.08,-7.76 38.29,-7.03 37.31,-6.58 36.33,-6.13 35.26,-6.02 34.19,-5.91 33.13,-6.15 32.08,-6.39 31.16,-6.95 30.24,-7.51 29.55,-8.34 28.86,-9.16 28.46,-10.17 28.07,-11.17 28.02,-12.25 27.97,-13.33 28.26,-14.36 28.56,-15.40 29.17,-16.29 29.78,-17.18 30.64,-17.82 31.50,-18.47 32.53,-18.81 33.55,-19.15 34.63,-19.14 35.71,-19.13 36.73,-18.78 37.75,-18.43 38.60,-17.77 39.45,-17.12 40.05,-16.22 40.65,-15.32 40.93,-14.28 41.22,-13.24 41.15,-12.17 41.09,-11.09 41.09,-11.09 41.09,-11.09 38.20,-7.37 35.31,-3.65 33.51,-2.22 31.71,-0.78 29.82,0.76 27.93,2.31 25.39,3.79 22.85,5.28 20.22,5.56 17.58,5.85 14.81,5.73 12.04,5.60 8.42,5.48 4.79,5.36 2.39,5.33 0,5.31 -0.63,5.23 -1.27,5.15 -1.86,4.93 -2.46,4.70 -2.99,4.33 -3.52,3.97 -3.94,3.49 -4.37,3.01 -4.66,2.45 -4.96,1.88 -5.11,1.26 -5.27,0.64 -5.27,-0.00 -5.27,-0.64 -5.11,-1.26 -4.96,-1.88 -4.66,-2.45 -4.37,-3.01 -3.94,-3.49 -3.52,-3.97 -2.99,-4.33 -2.46,-4.70 -1.86,-4.93 -1.27,-5.15 -0.63,-5.23 0.00,-5.31 0.00,-5.31 L 0,-5.31 Z"></path></g></svg>