<?xml version="1.0" encoding="UTF-8"?>
<svg id="_레이어_2" data-name="레이어 2" xmlns="http://www.w3.org/2000/svg" viewBox="0 0 301.36 274.69">
  <defs>
    <style>
      .cls-1 {
        fill: #231815;
        fill-rule: evenodd;
      }
    </style>
  </defs>
  <g id="_图层_1" data-name="图层 1">
    <path class="cls-1" d="m228.54,165.15c-.86,22.36-2.29,43.98-2.29,65.6,0,13.69-4.55,26.85-3.47,40.54.18,2.28-1.47,3.24-3.54,3.32-2.5.1-5,.07-7.5.07-41.83,0-83.65.01-125.48,0-7.58,0-7.57-.47-8.12-7.84-1.32-17.85-2.9-35.67-3.46-53.57-.46-14.82-1.16-29.63-1.78-44.45-.04-1.08.3-2.32-1.19-3.41-3.5,5.93-5.11,12.54-7.5,18.78-6.84,17.85-12.9,36.01-20.22,53.66-3,7.22-7.26,13.95-9.49,21.58-.81,2.75-3.15,3.34-5.68,2.49-8.81-2.98-17.6-6.02-26.36-9.16-2.42-.87-2.86-2.65-2.18-5.24,6.94-26.29,13.11-52.77,20.44-78.97,9.04-32.34,17.59-64.81,26.33-97.22,1.51-5.62,2.96-11.25,4.39-16.89,3.14-12.37,10.97-19.33,23.58-21.09,4.94-.69,9.86-1.59,14.76-2.53,1.75-.33,3.78-.65,3.94-3.1.84-12.37,9.08-18.87,19.55-21.99,25.47-7.6,51.18-7.89,76.58.69,9.98,3.37,16.83,10,18.17,21.03.29,2.39,1.81,2.99,3.68,3.35,4.25.8,8.51,1.57,12.78,2.28,16.42,2.74,22.34,8.56,26.55,24.71,7.8,29.92,15.92,59.76,23.95,89.63,7.21,26.81,14.92,53.49,21.37,80.48,1.56,6.51,2.77,13.14,4.72,19.6.81,2.68.06,4.7-3.1,5.73-8.22,2.69-16.32,5.75-24.51,8.54-3.25,1.11-5.21.31-6.88-3.37-13.2-28.99-23.41-59.14-34.81-88.82q-.76-1.97-3.23-4.42ZM195.47,17.19l-.15.09.25-.02c-.15,9.49-2.42,12.68-11.45,16.41-9.54,3.94-19.67,5.6-30.05,7.58,3.88,2.36,7.41,2.9,12.04,3.16,2.92.16,2.81-2.36,4.25-3.44,1.15-.86,3.17-1.25,3.63-.14,2.73,6.55,7.96,3.67,11.96,2.89,6.46-1.25,12.81-3.88,14.81-11.04,1.68-6.04.04-11.54-5.28-15.48Zm-44.93,230.58c21.16,0,42.32-.06,63.48.06,3.58.02,4.92-.95,5.01-4.75.29-12.32,1.18-24.63,1.47-36.95.69-29.47,3.26-58.9,2.04-88.41-.09-2.23-.15-4.77,2.76-5,3.16-.25,3.68,2.38,3.76,4.8.22,6.66.53,13.32.39,19.98-.1,5.11.97,9.81,2.8,14.54,4.73,12.23,9.17,24.58,13.75,36.87,5.46,14.63,11.01,29.23,16.37,43.9,1.25,3.43,2.75,4.1,6.24,2.62,5.49-2.33,11.24-4.06,16.95-5.85,3.13-.98,4.36-2.5,3.22-5.86-1.17-3.45-1.88-7.06-2.83-10.58-8.04-29.85-16.11-59.7-24.13-89.56-6.12-22.79-12.18-45.6-18.3-68.39-1.73-6.45-5.16-11.94-11.81-13.77-7.35-2.02-14.98-3.02-22.5-4.39-1.54-.28-2.98.1-3.91,1.59-5.15,8.3-13.49,10.92-22.39,12.32-7.22,1.14-7.25,1.01-7.33,8.19,0,.83.11,1.66.11,2.49.02,12.33.04,24.66.05,36.99,0,2.54-.57,4.98-3.62,4.93-2.9-.04-3.1-2.49-3.07-4.78.01-1.17,0-2.33,0-3.5,0-13.16-.1-26.33.06-39.49.04-3.36-1.07-4.27-4.41-4.95-9.3-1.88-18.38-1.97-27.7-.05-3.57.73-4.71,1.82-4.67,5.34.15,13.33.06,26.66.05,39.99,0,1.17.02,2.33-.02,3.5-.08,2.24-.94,4.14-3.42,4.04-2.16-.08-3-1.81-2.96-3.91.02-1.33-.02-2.66-.02-4,0-13-.12-25.99.08-38.99.06-3.98-1.09-5.57-5.27-5.71-7.45-.26-15.42-1.69-20.02-7.5-5.22-6.58-10.52-7.33-17.51-4.92-.77.27-1.65.21-2.47.31-15.86,1.98-20.04,5.86-24.09,21.3-6.62,25.24-13.42,50.43-20.23,75.63-7.93,29.36-15.94,58.7-23.95,88.05-.81,2.99.02,4.6,3.11,5.54,6.04,1.85,12.04,3.88,17.92,6.17,3.08,1.2,4.31.6,5.47-2.55,7.49-20.45,15.08-40.86,22.87-61.2,6.01-15.69,12.67-31.18,10.71-48.62-.2-1.81.06-3.66.06-5.49,0-2.51.43-5.15,3.46-5.05,3.16.1,3.22,3.06,3.02,5.34-1.57,18.01.02,35.96.71,53.93.9,23.47,1.92,46.94,2.7,70.41.14,4.36,1.79,5.53,6.04,5.48,20.66-.21,41.32-.1,61.98-.09Zm.37,6.89c-20.3,0-40.6,0-60.9.02-1.46,0-3.65-.66-4.23.65-1.56,3.58-1.05,7.57-.4,11.25.51,2.9,3.6,1.71,5.55,1.72,40.1.06,80.21-.1,120.31.12,6.88.04,5.05-4.32,5.45-8,.45-4.12-.68-5.93-5.37-5.88-20.13.25-40.27.11-60.4.12Zm.17-233.42c4.66.11,9.29.41,13.94.79,6.31.51,12.53,1.58,18.79,2.42,1.83.24,3.81.53,4.67-1.72.74-1.94,0-3.69-1.45-4.95-1.75-1.51-3.57-3.05-5.61-4.06-16.08-7.97-32.88-8.48-50.03-4.38-5.7,1.36-11.11,3.47-15.66,7.29-1.74,1.46-3.86,3.15-2.9,5.82,1.07,2.98,3.77,2.01,6.03,1.85.66-.05,1.33-.12,1.98-.25,9.98-2.03,20.12-2.41,30.25-2.8Zm-45.15-3.72c-8.41,7.33-7.5,17.91,1.45,23.16,4.74,2.78,9.98,3.51,15.28,4.07,1.64.17,2.77-.3,3.53-2,1.53-3.42,3.59-3.65,5.79-.49.56.8.91,2,2.15,1.63,1.54-.45.2-1.71.46-2.41,2.13-5.78-1.46-6.05-5.62-6.31-2.79-.18-5.54-1.03-8.31-1.58-11.29-2.22-13.78-4.86-14.72-16.09ZM8.04,245.1c-.69,2.55,1.12,3.26,2.87,3.89,2.96,1.06,5.95,2.08,8.96,3.01,9.21,2.84,8.71,5.97,12.33-5.95.73-2.39.84-3.56-1.79-4.43-5.5-1.81-10.93-3.86-16.38-5.84-1.52-.55-2.67-.15-3.23,1.34-.99,2.63-1.85,5.32-2.77,7.98Zm285.58.55c-.41-1.19-.92-2.58-1.39-3.99q-2.31-6.85-9.1-4.29c-2.31.87-4.65,1.67-6.97,2.54q-8.14,3.03-5.26,11.11c.11.31.21.63.32.94.78,2.32,2.15,3.03,4.58,2.13,4.96-1.83,10-3.42,14.99-5.15,1.44-.5,2.78-1.18,2.83-3.28ZM134.4,28.91c12.61,1.57,25.11,5.42,37.97,1.31-12.53-3.25-25.25-2.36-37.97-1.31Z"/>
  </g>
</svg>