<?xml version="1.0" encoding="UTF-8"?>
<svg id="_레이어_2" data-name="레이어 2" xmlns="http://www.w3.org/2000/svg" viewBox="0 0 275.67 279.37">
  <defs>
    <style>
      .cls-1 {
        fill: #231815;
        fill-rule: evenodd;
      }
    </style>
  </defs>
  <g id="_图层_1" data-name="图层 1">
    <path class="cls-1" d="m212.87,141.41c-.53,5.49-1.12,10.84-1.56,16.21-1.75,21.09,1.38,41.84,4.12,62.66,2.38,18,3.07,36.16,2.78,54.34-.05,3.17-1.68,4.62-4.65,4.56-16.14-.34-32.32,1.19-48.41-1.1-9.25-1.31-17.12-5.2-23.38-12.21-1.17-1.31-2.35-3.56-4.02-.55-6.57,11.82-18.08,13.35-29.72,13.73-14.81.49-29.66.11-44.48.22-4.12.03-6.01-1.46-6.03-5.86-.11-22.87,1.23-45.62,4.9-68.2,3.5-21.54,2.99-43.08.26-65.4-2.29,2.68-2.74,5.37-3.69,7.86-4.8,12.54-6.68,25.69-8.49,38.88-2.72,19.78-5.66,39.53-8.47,59.3-.87,6.09-1.76,12.19-2.36,18.32-.4,4.12-2.11,5.97-6.43,5.47-9.27-1.06-18.55-1.96-27.84-2.78-4.22-.37-5.76-2.37-5.33-6.58,2.26-21.86,4.39-43.73,6.56-65.6,1.35-13.59,2.37-27.22,4.09-40.76,2.58-20.35,8.1-40.08,13.75-59.74,4.87-16.92,10.29-33.69,15.29-50.57,2.25-7.6,6.28-12.74,14.55-14.61,12.48-2.81,24.78-6.45,37.2-9.54,2.41-.6,4.34-1.55,5.9-3.38C109.86,1.53,126.48-.81,144.19.21c13.31.77,24.97,5.24,33.94,15.59,4.56,5.26,11.47,4.8,17.37,6.61,8.4,2.58,17,4.6,25.6,6.46,7.86,1.7,12.34,6.4,14.69,13.9,9.73,31.09,19.29,62.22,26.49,94.02,3.1,13.69,3.98,27.67,5.4,41.57,2.77,27,5.27,54.03,7.82,81.05.59,6.2-.1,6.93-6.21,7.54-8.95.89-17.91,1.7-26.84,2.7-3.99.45-5.78-1.14-6.32-5.07-4.19-30.67-8.44-61.32-12.78-91.97-1.38-9.75-4.49-19.07-7.7-28.34-.35-1-.68-2.25-2.78-2.86Zm-122.65,131.07v-.33c7.66,0,15.33.27,22.98-.06,13.05-.57,25.13-9.4,20.51-26.46-.8-2.94-.7-5.94-.7-8.94,0-13.16-.2-26.33.06-39.49.26-13.13-1.26-26.32,1.14-39.39.35-1.93-.48-3.54-1.37-5.19-11.18-20.81-21.66-41.96-31.14-63.61-6.47-14.78-12.69-29.66-18.48-44.71-2.18-5.65-1.67-6.56,4.19-8.04.98-.25,2.07-.3,2.05-1.65-.03-1.82-6.14-6.21-7.97-5.74-8.37,2.15-16.69,4.55-25.13,6.38-5.13,1.11-8.21,3.65-9.72,8.71-4.95,16.56-10.36,32.98-15.14,49.59-5.28,18.37-10.35,36.8-13.49,55.7-2.05,12.34-2.67,24.82-3.91,37.23-2.33,23.19-4.6,46.39-6.98,69.58-.3,2.95.6,4.34,3.59,4.63,6.3.62,12.59,1.32,18.86,2.15,3.38.45,3.94-1.73,4.28-4.16,2.57-18.3,5.3-36.58,7.62-54.91,3.25-25.62,6.74-51.16,17.5-75.01,1.76-3.89,2.31-7.86,2.01-12.12-.35-5.14-.32-10.32-.32-15.48,0-1.72.54-3.38,2.77-3.45,2.42-.08,3.13,1.47,3.23,3.53.04.83.05,1.67.09,2.5.48,11.65,1.58,23.25,2.62,34.86,1.48,16.41,3.33,32.85,1.72,49.37-.34,3.49,1.03,4.41,4.16,4.35,5.83-.11,11.66,0,17.5-.03,3.48-.02,5.24,1.75,5.46,5.12.14,2.16.27,4.33.23,6.49-.12,6.22-3.75,9.86-9.99,9.98-5.16.09-10.35.3-15.49-.03-4.03-.26-5.75,1.23-6.14,5.16-1.63,16.42-2.57,32.88-2.64,49.38-.01,3.02,1.02,4.16,4.05,4.11,7.33-.13,14.66-.04,21.99-.04Zm49.41-63.41c.26,12.52-.98,24.69.63,36.72,1.87,14.02,9.94,22.99,24.21,25.49,14.72,2.58,29.59.69,44.39,1.18,2.58.08,2.86-1.75,2.84-3.74-.21-16.84-1-33.64-2.89-50.38-.37-3.28-1.95-4.56-5.28-4.43-5.32.19-10.66.07-16,0-6.59-.09-10.1-3.65-10.16-10.27-.02-2,.16-3.99.26-5.99.17-3.64,1.98-5.42,5.73-5.34,4.83.11,9.67.03,14.5.02,7.28,0,7.24,0,6.5-7.51-.23-2.31-.26-4.66-.23-6.99.2-19.02,2.24-37.9,3.94-56.82.54-5.97.59-11.98.9-17.96.12-2.28-.29-5.21,3.09-5.25,3.81-.04,3.19,3.16,3.19,5.55,0,3.66-.06,7.34-.42,10.99-.56,5.77.53,11.05,2.75,16.45,4.61,11.23,9.08,22.66,11.07,34.63,3.54,21.34,6.21,42.83,9.23,64.26,1.35,9.56,2.64,19.13,4.05,28.68.37,2.47.71,5.07,4.48,4.54,5.6-.79,11.23-1.5,16.88-1.86,4.42-.29,5.87-1.8,5.35-6.53-2.28-20.86-3.88-41.8-6.2-62.65-2.29-20.49-3.42-41.1-8.37-61.29-7.25-29.58-15.99-58.69-25.25-87.67-1.21-3.81-3.79-6.2-7.64-7.17-8.06-2.03-16.32-3.47-24.14-6.21-5.03-1.76-7.19.42-9.74,3.7-1.36,1.75-1.16,2.45.94,3.06,6.08,1.77,6.48,2.49,4.13,8.45-4.69,11.92-9.41,23.82-14.33,35.64-1.49,3.56-.95,4.9,3.05,4.68,3.66-.2,7.33-.09,11-.04,2.29.03,5.12-.37,5.04,3.17-.08,3.52-3.04,2.98-5.23,3.04-4.66.14-9.34.25-13.99,0-3.57-.19-5.5,1.27-6.83,4.47-2.24,5.37-4.82,10.6-7.21,15.91-6.64,14.69-13.27,29.39-19.88,44.1-.82,1.82-2.06,3.7,1.52,4.25,5.97.92,8.75,4.17,7.77,8.57-1.05,4.74-4.82,6.92-10.41,5.38-2.74-.75-3.23.05-3.21,2.42.04,5.5.07,11-.02,16.5-.05,3.09-.12,5.35,4.24,3.42,2.92-1.29,5.93-.12,7.94,2.62,1.96,2.67,2.21,5.52.4,8.39-1.96,3.11-4.87,3.82-8.26,3.11-1.26-.26-2.47-.71-4.32-1.26Zm-1.36-188.06c-7.66-.1-15.3.09-22.92,1.16-2.94.41-4.42,1.26-4.18,4.62.89,12.64,2.29,25.24,6.07,37.33,6.54,20.92,13.65,41.65,20.54,62.46.39,1.18.19,3.07,1.95,3.02,1.75-.05,1.46-1.91,1.78-3.12,4.53-16.67,8.95-33.37,13.61-50,4.39-15.72,7.73-31.62,9.36-47.89.43-4.29-.65-6.25-5.28-6.66-6.97-.62-13.93-1.03-20.93-.93Zm-36.17-1.97c-2.57,3.03-5.14,6.06-7.69,9.11-.19.23-.38.77-.27.89,2.29,2.38,4.62,4.72,6.94,7.08.23.24.49.46.68.73,1.99,2.84,1,5.06-2.54,5.51-1.48.19-3,.21-4.49.13-3.58-.2-5.66.55-3.42,4.64.47.86.56,1.91.94,2.83,8.48,20.39,16.85,40.83,26.44,60.73,4.64,9.64,9.58,19.13,14.49,28.89,1.53-1.48.99-2.64.66-3.66-4.89-15.17-9.64-30.38-14.78-45.46-6.38-18.73-12.79-37.4-13.75-57.43-.2-4.25-.11-8.61-3.24-13.97Zm47.79,103.29c.43.13.86.26,1.29.39.55-.97,1.18-1.9,1.65-2.91,10.93-23.49,21.95-46.94,31.18-71.17,2.27-5.98,3.01-5.96-4.98-6.13-1.98-.04-4.56.81-5.68-1.9-1.19-2.85,1.03-4.22,2.7-5.8,7.27-6.9,7.22-4.99-.08-11.96-1.03-.98-1.96-2.93-3.49-2.36-1.72.65-1.27,2.87-1.45,4.41-.71,6.11-1.01,12.28-1.86,18.37-2.81,19.99-9.42,39.05-14.37,58.52-1.73,6.81-4.36,13.47-4.9,20.55Zm-12.38-115.69c-7.74-.31-15.57.88-23.01,4.08-1.57.68-3.89,1.36-3.32,3.7.57,2.34,2.83,1.21,4.26,1.1,11.77-.85,23.54-1.52,35.34-.64,3.64.27,7.29.52,10.93.73,1.12.07,2.49.38,2.85-1.2.3-1.33-.51-2.19-1.64-2.76-1.03-.52-2.06-1.07-3.12-1.5-7.05-2.86-14.42-3.72-22.3-3.52Zm58.02,192.32v.02c-2.15,0-4.31.07-6.46-.02-2.89-.11-5.07.03-5.05,4.05.02,4,2.17,4.82,5.3,4.87,4.14.07,8.29.09,12.44,0,2.29-.05,5.57.99,5.24-3.15-.26-3.2-.86-6.42-5.5-5.81-1.95.26-3.97.04-5.96.04Zm-114.77.04v.03c-2.81,0-5.63-.18-8.42.04-3.91.32-2.95,3.86-3.44,6.14-.58,2.66,1.71,2.69,3.58,2.69,4.96,0,9.92.05,14.87-.08,3.3-.09,4.4-2,4.39-5.25,0-3.48-2.03-3.62-4.53-3.58-2.15.03-4.3,0-6.45,0Z"/>
  </g>
</svg>