<?xml version="1.0" encoding="UTF-8"?>
<svg id="_레이어_2" data-name="레이어 2" xmlns="http://www.w3.org/2000/svg" viewBox="0 0 301.16 259.82">
  <defs>
    <style>
      .cls-1 {
        fill: #231815;
        fill-rule: evenodd;
      }
    </style>
  </defs>
  <g id="_图层_1" data-name="图层 1">
    <path class="cls-1" d="m226.73,130.3c0,8.75.19,17.5-.03,26.24-.82,31.83-.55,63.66-.59,95.49-.01,7.72-.07,7.79-7.79,7.79-45.17,0-90.33,0-135.5,0q-7.86,0-7.83-7.67c.2-38.5-.15-76.99-1.15-115.48-.04-1.71.58-3.63-1.35-5.63-3.43,6.55-5.28,13.38-7.65,19.96-9.19,25.49-18.22,51.04-27.36,76.55-2.05,5.71-2.8,5.96-8.89,3.96-8.04-2.64-16.07-5.33-24.13-7.94-3.55-1.15-5.23-3.13-4.13-7.1,2.09-7.52,3.9-15.13,5.95-22.66,3.96-14.57,8.03-29.11,12.01-43.67,8.81-32.24,17.61-64.48,26.39-96.73,2.18-8.02,4.05-16.14,6.51-24.07,2.77-8.93,9.36-13.9,18.33-15.73,17.76-3.63,35.09-9.18,53.1-11.65,24.52-3.36,48.86-2.46,72.98,3.16,12.95,3.02,25.84,6.27,38.76,9.42,8.68,2.12,13.71,8.11,15.95,16.27,10.31,37.51,20.37,75.1,30.57,112.64,6.37,23.42,12.82,46.81,19.27,70.21,1.96,7.1,1.53,7.98-5.57,10.4-7.55,2.58-15.19,4.94-22.63,7.8-4.5,1.73-6.76.49-8.31-3.9-9.74-27.6-19.59-55.16-29.44-82.72-1.81-5.08-3.8-10.09-5.7-15.14-.59.06-1.19.12-1.78.19Zm-145.39,38.79c0,25.83,0,51.66,0,77.49,0,6.86,0,6.9,6.93,6.9,41.5.01,82.99.01,124.49,0,7.06,0,7.07-.03,7.06-7.22-.09-51.66-.24-103.32,2.41-154.93.15-3-.73-7.59,3.6-7.48,4.47.12,2.89,4.67,3.06,7.62.38,6.8-1.89,13.84.41,20.38,12.9,36.7,26.12,73.29,39.18,109.94.99,2.78,2.36,3.5,5.26,2.38,4.95-1.92,9.98-3.76,15.13-4.98,4.8-1.14,5.03-3.8,3.92-7.71-3.52-12.48-6.96-24.98-10.36-37.5-12.58-46.37-25.12-92.75-37.69-139.12-1.73-6.38-4.6-12.12-11.52-13.91-13.04-3.38-26.22-6.16-39.26-9.53-4.05-1.05-6.41-.26-8.45,3.42-1.52,2.76-4.22,4.72-7.07,6.17-7.36,3.75-13.2,9.52-19.64,14.49-1.98,1.53-3.22,2.96-.77,5.14,1.25,1.1,1.74,2.62.6,4-1.21,1.47-3.09,1.67-4.54.64-2.61-1.86-4.85-2.51-7.54-.07-1.29,1.17-3.24,1.08-4.54-.32-1.17-1.26-.99-2.99.1-4.12,2.79-2.86.67-4.39-1.4-5.92-6.54-4.83-12.27-10.72-19.51-14.67-2.75-1.5-5.16-3.71-6.61-6.64-1.22-2.48-2.78-3.09-5.61-2.38-13.55,3.36-27.21,6.3-40.76,9.7-5.51,1.39-9.24,5.19-10.78,10.79-5.89,21.31-11.77,42.61-17.59,63.94-8.75,32.08-17.43,64.18-26.17,96.26-1.79,6.56-3.76,13.08-5.52,19.65-.96,3.59-1.18,6.6,3.88,7.68,5,1.07,9.86,2.99,14.64,4.89,3.51,1.39,4.88.39,6.11-3.09,10.42-29.46,20.75-58.96,31.72-88.22,5.32-14.19,9.77-28.26,7.54-43.64-.09-.65-.08-1.34-.03-2,.15-1.88,1.17-3.23,3-3.47,2.05-.26,2.89,1.35,3.35,3.02.26.95.3,1.98.33,2.97.62,26.49,2.69,52.93,2.6,79.44ZM150.81,6.55c-8.25-.5-16.5.76-24.78,1.5-1.85.16-4.61-.64-5.19,1.79-.59,2.45,2.03,3.69,3.74,4.76,8.89,5.61,18.81,7.42,29.12,6.77,8.87-.56,17.49-2.32,24.64-8.23,1.02-.84,2.39-1.66,2.1-3.14-.38-1.93-2.24-1.71-3.66-1.81-8.62-.59-17.18-2.15-25.97-1.64Zm6.34,20.92c-5.12.88-9.06-.55-13.15.97,5.96,6.33,6.55,6.32,13.15-.97Z"/>
  </g>
</svg>