<?xml version="1.0" encoding="UTF-8"?>
<svg id="_레이어_2" data-name="레이어 2" xmlns="http://www.w3.org/2000/svg" viewBox="0 0 302.08 270.17">
  <defs>
    <style>
      .cls-1 {
        fill: #231815;
        fill-rule: evenodd;
      }
    </style>
  </defs>
  <g id="_图层_1" data-name="图层 1">
    <path class="cls-1" d="m66.38,182.91c-2.2,5.62-4.06,11.14-7.44,15.95-.51.72-.5,1.91-.47,2.88.31,13.64-3.77,26.25-9.16,38.5-1.59,3.62-3.36,7.2-7.24,9.24-2.28,1.2-2.35,3.95-2.73,6.19-.56,3.28-2.21,4.78-5.5,4.08-9.44-2-18.87-4.04-28.28-6.13-2.62-.58-3.51-2.57-2.92-4.96,1.11-4.48.51-8.42-1.2-12.87-3.03-7.89-.54-16.19.78-24.17,1.21-7.36,3.12-14.67,7.41-21.03.91-1.36.67-2.86.66-4.35-.09-16.71,2.29-32.84,11.17-47.43,1.02-1.68.84-3.51.94-5.33.87-15.13,4.15-29.51,12.09-42.73,2.91-4.84,2.19-10.98,4.14-16.35,5.87-16.14,15.53-28.31,31.42-36.23,12.02-6,24.09-11.11,37.17-13.85,2.86-.6,3.89-1.94,3.74-4.76-.11-1.97.2-3.99.45-5.97,1.16-9.22,2.04-10.58,11.46-12.09,14.88-2.38,29.92-1.2,44.9-1.14,4.66.02,9.3.33,13.88,1.44,7.23,1.75,8.68,3.4,9.73,10.56.53,3.61-.98,8.02,1.35,10.65,2.31,2.61,6.79,2.18,10.31,3.1,15.78,4.14,30.55,10.78,43.1,21.08,11.71,9.61,17.91,22.93,20.08,37.95.39,2.72,1.4,4.98,2.74,7.35,6.74,11.94,10.04,24.95,10.88,38.55.25,4.08,1.13,7.56,3.07,11.26,7.03,13.39,9.39,27.96,9.3,42.95-.02,2.77.59,5.05,1.85,7.52,6.06,11.82,7.82,24.66,8.01,37.74.04,2.92-.38,5.96-2.27,8.56-2.05,2.81-.57,5.87,0,8.7.75,3.79-.41,5.48-4.24,6.22-8.82,1.71-17.58,3.69-26.32,5.76-3.43.81-5.57.08-6.16-3.6-.57-3.58-2.48-5.99-5.15-8.58-5.9-5.71-7.84-13.77-10.19-21.37-2.46-7.95-4.49-16.05-3.64-24.52.26-2.65-1.83-4.16-2.81-6.21-1.36-2.85-2.59-5.75-3.9-8.62-.44-.95-.35-2.79-1.98-2.2-1.47.53-1.36,2.06-.77,3.42,1.19,2.75,2.17,5.53,2.78,8.5,3.67,17.72,3.41,35.38-.58,52.98-1.27,5.58-5.44,9.98-5.79,16.21-.21,3.81-4.69,4.4-8.46,4.39-23.66-.06-47.32,0-70.98,0-23.66,0-47.32,0-70.98-.02-7.88,0-9.1-1.15-9.97-8.98-.09-.81-.12-1.75-.55-2.39-8.58-12.94-7.44-27.7-7.35-42.06.06-9.75.6-19.7,5.26-28.74,1.08-2.09-.27-3.39-1.64-5.07Zm44.11-68.46v-.05c10.99,0,21.99-.08,32.98.05,3.11.04,4.52-.81,4.51-4.19-.1-20.32-.08-40.64-.02-60.96,0-2.83-.72-4.37-3.92-4.22-5.2.25-10.31-.76-15.32-1.92-6.35-1.48-12.93-3.25-16.07-9.7-1.44-2.97-3.15-2.98-5.5-2.41-4.68,1.14-9.33,2.4-13.99,3.65-13.39,3.61-22.97,10.97-25.1,25.62-.5,3.46-1.23,6.89-1.57,10.37-1.29,12.91-.41,25.59,4.49,37.78,1.64,4.07,4.12,6.28,9.04,6.1,10.15-.38,20.32-.11,30.48-.11Zm81.14-.03v.02c9.83,0,19.68-.38,29.48.14,5.9.32,8.97-2.02,10.8-7.21,6.38-18.11,5.91-36.24.15-54.36-1.59-4.99-3.92-9.58-8.78-12.27-8.83-4.89-18.41-7.6-28.2-9.68-1.77-.37-3.56-.68-4.52,1.76-1.87,4.74-6.03,6.97-10.48,8.56-6.63,2.37-13.54,3.69-20.56,3.62-4.1-.04-5.02,1.53-5,5.28.15,19.66.16,39.32.02,58.98-.03,3.84,1.09,5.31,5.1,5.23,10.66-.22,21.32-.08,31.99-.08Zm-81.03,75.14v.02c-9.65,0-19.31,0-28.96,0-8.22,0-8.97.84-10.61,9.06-2.43,12.21-2.3,24.5-1.4,36.79.34,4.6,1.57,9.15,2.5,13.7.57,2.8,2.26,4.15,5.28,4.14,22.13-.04,44.27,0,66.4.05,2.88,0,4.16-1.11,4.15-4.16-.09-18.47-.1-36.95,0-55.42.02-3.31-1.22-4.28-4.41-4.24-10.98.15-21.97.06-32.95.06Zm81.17-.01v.03c-11,0-22,.06-32.99-.04-2.9-.03-4.24.79-4.23,3.93.09,18.5.09,36.99,0,55.49-.01,3.26,1.4,4.44,4.5,4.44,22-.04,43.99-.03,65.99,0,2.67,0,4.2-1.08,5.21-3.67,1.42-3.65,1.76-7.49,2.18-11.25,1.65-14.8,1.77-29.56-2.29-44.1-1.03-3.7-3.14-4.95-6.88-4.89-10.5.17-21,.06-31.49.06Zm-81.14-6.7v.04c10.83,0,21.65-.13,32.48.07,3.73.07,4.92-1.19,4.89-4.87-.14-17.49-.15-34.98,0-52.46.03-3.93-1.23-5.08-5.19-5.04-20.82.19-41.64.07-62.46.06-7.05,0-8.11,1.08-9.26,8.13-1.66,10.24-2.13,20.52-1.72,30.86.26,6.49,1.21,12.88,3.01,19.16.89,3.13,2.64,4.15,5.78,4.11,10.82-.13,21.65-.05,32.48-.05Zm81.5.06v-.05c10.33,0,20.66-.2,30.98.1,4.35.13,6.41-1.51,7.36-5.56,3.96-17,3.58-33.98.15-51.01-.89-4.41-3.21-5.86-7.65-5.82-20.99.19-41.98.18-62.96,0-4.04-.03-5.55,1-5.5,5.27.21,17.32.2,34.65-.01,51.97-.05,4.04,1.36,5.2,5.16,5.15,10.82-.15,21.65-.05,32.48-.05Zm93.31-5.13c-.66-10.54-3.06-20.65-7.02-30.46-1.62-4.02-4.05-4.56-7.87-3.53-8.82,2.38-17.69,4.59-26.6,6.61-2.74.62-4.28,1.9-4.27,4.59.03,12.55,1.12,24.91,6.74,36.44,1.64,3.35,4.07,4.34,7.74,3.45,8.56-2.07,17.14-4.09,25.8-5.69,4.83-.89,6.29-3.52,5.84-7.93-.12-1.16-.24-2.32-.36-3.48Zm-222.8-15.5c0-1.66-.14-3.34.03-4.98.46-4.44-1.18-6.4-5.87-7.23-8.14-1.44-16.12-3.85-24.15-5.9-6.22-1.59-7.13-1.32-9.37,4.55-4.17,10.95-6.12,22.37-6.85,34.03-.21,3.35,1.01,5.15,4.46,5.87,9.09,1.91,18.16,3.93,27.16,6.24,4.23,1.09,6.53-.37,8.27-4.06,4.26-9.05,5.82-18.65,6.34-28.52ZM6.91,224.13c-.24,10.81-.27,10.9,8.18,13.06,6.91,1.77,13.96,3.03,20.81,5.01,3.42.99,5.29.3,6.77-2.79,5.07-10.58,8.32-21.64,9.35-33.36.23-2.63-.72-3.91-3.35-4.48-9.89-2.14-19.77-4.35-29.6-6.75-3.53-.86-5.22.54-6.38,3.61-3.37,8.93-5.24,18.16-5.77,25.69Zm289.05,5.52c-1.1-12.43-2.49-22.57-6.72-32.16-1.07-2.42-2.36-3.33-4.95-2.74-10.35,2.38-20.7,4.72-31.08,7-2.22.49-3.11,1.76-2.91,3.87,1.19,12.35,4.42,24.12,10.21,35.13,1,1.9,2.5,2.33,4.6,1.79,7.87-2.04,15.72-4.25,23.69-5.8,5.53-1.07,7.98-3.6,7.14-7.1Zm-22.09-97.23c-1.39-11.92-4.16-23.5-9.15-34.49-1.19-2.63-2.87-3.7-5.89-2.99-4.52,1.07-9.14,1.69-13.69,2.66-1.56.34-3.65.53-4.09,2.4-1.32,5.71-3.45,11.07-6.26,16.19-.53.96-.38,1.9.02,2.87,3.01,7.15,4.16,14.66,4.34,22.36.05,2.3,1.01,3.34,3.48,2.72,9.18-2.28,18.38-4.46,27.56-6.69,2.61-.63,4.1-2.13,3.65-5.04Zm-245.52.78c-.47,2.29,1.32,3.67,4.1,4.32,8.74,2.06,17.53,3.94,26.18,6.3,3.66,1,4.37-.39,4.66-3.45.47-4.96.13-10.13,2.16-14.77,2.52-5.75.49-10.56-.78-16.29-2.31-10.4-8.55-13.04-17.37-13.81-1.16-.1-2.35-.19-3.45-.53-3.19-.98-4.97.42-6.25,3.22-4.98,10.85-7.59,22.32-9.24,35.01ZM151.57,6.3c-8.64.12-17.28.23-25.87,1.28-2.3.28-5.75.09-6.02,2.36-.28,2.36,3.12,2.66,5.29,3.43,8.34,2.95,17.7.37,25.77,4.8.55.3,1.69-.04,2.35-.44,2.97-1.77,6.29-2.03,9.59-2.32,5.45-.49,10.96-.52,16.23-2.31,1.72-.58,4.28-.89,4.2-2.82-.1-2.31-2.69-2.38-4.68-2.6-8.93-.99-17.89-1.34-26.86-1.38Zm87,43.09c.29,2.4.25,3.42.55,4.31,3.21,9.42,3.71,19.17,3.52,29-.17,8.49-.19,8.49,7.91,7.13,10.4-1.75,10.62-1.81,7.67-11.68-3.32-11.12-9.12-20.73-19.65-28.75Zm-175.37.61c-1.24.88-2.08,1.36-2.79,2-9.51,8.52-14.84,19.39-17.68,31.64-.69,2.99.19,4.74,3.45,5.21,3.12.45,6.24,1.05,9.27,1.9,3.52,1,4.77.2,4.55-3.71-.56-9.81-.14-19.59,2.01-29.27.52-2.32,2.44-4.45,1.2-7.78Zm121.95-25.54c.16-6.3.21-6.09-5.9-4.74-5,1.1-10.04,2.13-15.23,2.18-8.59.09-9.62,1.26-9.59,9.97,0,1,.08,1.99.01,2.98-.2,2.83,1.12,3.82,3.87,3.7,6.31-.27,12.57-.87,18.59-2.9,6.7-2.26,8.07-4.19,8.24-11.19Zm-37.24,7.29c.06-8.7-.88-9.67-9.69-9.9-5.86-.15-11.56-1.19-17.16-2.89-1.19-.36-2.51-1.2-3.4.62-2.07,4.21.76,12.81,5.1,14.79,5.67,2.59,11.73,3.56,17.92,3.96,7.19.46,7.18.52,7.24-6.58Zm42.21,232.36v-.03c10.31,0,20.63.01,30.94-.01,1.79,0,4.25.32,4.29-2.16.04-2.28-2.36-1.88-3.93-1.88-20.79-.02-41.58,0-62.38.05-1.69,0-4.33-.57-4.25,2.07.08,2.53,2.66,1.94,4.39,1.95,10.31.04,20.63.02,30.94.02Zm-77.25-.01c7.65,0,15.31,0,22.96,0,2.99,0,5.99,0,8.98,0,1.45,0,2.89-.38,2.87-2.04-.02-1.66-1.47-1.99-2.91-2-1,0-2-.07-2.99-.07-19.97,0-39.93,0-59.9,0-1,0-2,.02-2.99.11-1.1.1-2.07.66-1.92,1.81.09.65.89,1.53,1.54,1.72,1.24.37,2.61.42,3.92.43,10.15.03,20.3.02,30.45.03Zm-81.47-11.35c.73.24,1.77.04,2.2-1.39.43-1.42.29-2.8-1.33-3.22-6.54-1.72-13.11-3.34-19.68-4.95-1.7-.42-2.38.64-2.66,2.13-.28,1.45-.16,2.66,1.58,3.04,6.45,1.42,12.89,2.84,19.89,4.39Zm239.88-.05c6.6-1.46,13.21-2.89,19.8-4.4,1.73-.4,1.61-1.82,1.39-3.2-.2-1.33-.86-2.29-2.28-1.95-6.72,1.62-13.43,3.31-20.13,5.05-1.31.34-1.72,1.42-1.31,2.76.39,1.25,1.06,2.04,2.53,1.74Z"/>
  </g>
</svg>