<?xml version="1.0" encoding="UTF-8"?>
<svg id="_레이어_2" data-name="레이어 2" xmlns="http://www.w3.org/2000/svg" viewBox="0 0 261.74 259.91">
  <defs>
    <style>
      .cls-1 {
        fill: #231815;
        fill-rule: evenodd;
      }
    </style>
  </defs>
  <g id="_图层_1" data-name="图层 1">
    <path class="cls-1" d="m54.62,181.43c-.31-23.99-.4-47.97-1.58-71.93-.09-1.74.66-4.1-1.19-5.04-2.02-1.03-3.26,1.22-4.43,2.4-2.36,2.37-4.53,2.6-7.55,1.08-12.04-6.04-24.16-11.91-36.32-17.68-3.76-1.78-4.4-4.17-2.51-7.61,10.15-18.53,20.38-37.01,30.4-55.6,5.32-9.87,14.44-13.07,24.52-15.07,15.81-3.14,31.23-8.07,47.27-10.12,25-3.2,49.79-2.45,74.34,3.69,10.8,2.7,21.62,5.42,32.55,7.51,9.39,1.79,16.12,6.59,20.62,14.9,9.75,17.98,19.59,35.92,29.35,53.89,2.73,5.03,2.3,6.32-2.87,8.86-11.49,5.65-23.04,11.16-34.48,16.91-3.39,1.71-6.11,1.98-8.85-1.13-.95-1.08-2.26-2.99-4.14-1.94-1.69.95-1.01,3.01-1.09,4.59-1.35,26.79-1.2,53.62-1.42,80.43-.17,21.15-.02,42.31-.03,63.47,0,6.01-.61,6.77-6.44,6.77-46.64.04-93.29-.03-139.93.09-4.87.01-6.31-1.86-6.28-6.51.15-23.99.07-47.97.07-71.96Zm6.59-16.85c0,29.28.09,56.27-.09,83.27-.03,4.3,1.08,5.72,5.56,5.71,42.49-.15,84.98-.17,127.47.02,4.96.02,6.46-1.17,6.46-6.34-.04-41.15-.75-82.32,1.01-123.46.65-15.14.09-30.34,1.98-45.42.29-2.29.14-5.15,3.6-4.77,3.3.36,2.89,3.08,2.77,5.43-.11,2-.04,4.04-.47,5.97-1.46,6.43,1.52,10.66,6.31,14.42,2.32,1.82,4.2,2.15,6.77.87,9.06-4.54,18.12-9.09,27.33-13.33,3.21-1.48,3.9-3.13,2.25-6.12-9.57-17.32-19.07-34.68-28.68-51.98-2.55-4.59-6.57-7.32-11.75-8.53-11.5-2.68-22.97-5.48-34.44-8.3-2.66-.65-4.58-.45-6.35,2.17-1.95,2.88-4.86,4.92-8.02,6.59-14.85,7.85-30.7,8.41-46.72,5.82-10.23-1.66-20.19-4.68-26.67-13.97-1.17-1.67-3.03-1.06-4.62-.69-10.04,2.34-20.08,4.7-30.11,7.1-6.52,1.56-12.97,3.16-16.59,9.8-9.63,17.67-19.35,35.3-29.1,52.91-1.3,2.35-.78,3.51,1.56,4.63,9.6,4.58,19.14,9.27,28.67,14,2.61,1.3,4.41.59,6.74-1.08,5.72-4.11,7.46-9.33,6.05-16.01-.45-2.11-.64-4.3-.65-6.45,0-1.83.93-3.22,3.03-3.24,1.92-.01,3.19.8,3.35,2.89.09,1.16.26,2.32.35,3.48,2.21,28.92,1.95,57.93,3,84.61ZM130.78,6.47c-9.14-.41-18.71.99-28.28,2.05-1.92.21-5.14-.3-5.44,2.19-.25,2.11,2.67,3.15,4.48,4.18,8.78,4.97,18.53,6.55,28.36,6.58,10.83.04,21.62-1.23,31.18-7.16,1.47-.91,3.94-1.66,3.66-3.65-.31-2.2-2.96-1.76-4.59-1.97-9.56-1.25-19.14-2.41-29.36-2.22Z"/>
  </g>
</svg>