<?xml version="1.0" encoding="UTF-8"?>
<svg id="_레이어_2" data-name="레이어 2" xmlns="http://www.w3.org/2000/svg" viewBox="0 0 154.88 260.67">
  <defs>
    <style>
      .cls-1 {
        fill: #231815;
        fill-rule: evenodd;
      }
    </style>
  </defs>
  <g id="_图层_1" data-name="图层 1">
    <path class="cls-1" d="m1.31,179.26c-.53-28.82.19-55.99-1.29-83.12-.18-3.3.81-5.56,3.69-7.51,11.49-7.77,17.64-18.41,18.12-32.61.55-16.16.55-32.32.4-48.48-.05-4.83,1.94-6.36,6.29-6.86,12.95-1.49,12.91-1.58,13.58,11.58.18,3.49.72,6.97.82,10.46.2,7.1,3.82,11.49,10.42,13.59,16.18,5.14,32.41,5.16,48.55-.03,6.46-2.08,10.16-6.39,10.22-13.67.05-5.81,1.02-11.61,1.36-17.42.2-3.45,1.49-5.04,5.2-5.06,13.56-.06,14.25.57,14.31,13.95.08,14.66-.03,29.32.49,43.98.48,13.65,7.43,23.18,17.98,30.6,2.56,1.8,3.49,3.63,3.42,6.54-1.23,53.15-.83,106.31-.87,159.46,0,4.14-1.54,6.03-5.91,6.02-46.99-.08-93.98-.09-140.97-.01-4.81,0-5.87-2.4-5.85-6.58.08-25.5.04-50.99.04-74.81Zm6.63-10.39c0,29.62.13,54.29-.11,78.94-.05,4.83,1.37,6.11,6.14,6.09,42.32-.18,84.65-.18,126.97,0,4.91.02,6.47-1,6.47-6.26.02-49.15-.89-98.31,1.02-147.45.15-3.91-.97-6.41-4.12-8.81-10.26-7.84-16.23-17.96-17.1-31.3-1.04-16-.74-31.97-.88-47.96-.02-2.34.36-4.85-3.24-4.94-3.28-.08-3.15,2.28-3.41,4.41-1.08,8.76-.84,17.65-2.58,26.34-2.83,14.16-10.38,24.24-24.59,28.69-7.16,2.24-14.44,2.18-21.77,1.62-16.58-1.26-29.11-12.75-32.53-28.99-1.9-9.04-1.12-18.28-2.85-27.28-.38-1.99.75-5.05-3.31-4.75-3.65.27-3.11,2.8-3.09,5.06.08,14.99-.5,29.97-.83,44.96-.32,14.4-6.21,25.69-17.44,34.26-3.16,2.41-4.2,4.99-4.06,8.86.91,24.48,1.54,48.96,1.29,68.5ZM77.02,62.43c13.54-.54,25.04-4.02,31.08-17.22.52-1.13,1.86-2.42.79-3.63-1.11-1.25-2.4.08-3.59.48-18.57,6.23-37.13,6.32-55.67-.14-1.06-.37-2.23-1.47-3.2-.6-1.27,1.14-.08,2.43.44,3.6,5.93,13.24,17.31,16.92,30.14,17.5Z"/>
  </g>
</svg>