<?xml version="1.0" encoding="UTF-8"?>
<svg id="_레이어_2" data-name="레이어 2" xmlns="http://www.w3.org/2000/svg" viewBox="0 0 217.04 318.51">
  <defs>
    <style>
      .cls-1 {
        fill: #231815;
        fill-rule: evenodd;
      }
    </style>
  </defs>
  <g id="_图层_1" data-name="图层 1">
    <path class="cls-1" d="m159.91,122.06c.32,6.24-2.55,11.7.22,17.8,1.99,4.39,1.7,9.88.47,14.27-2.09,7.46.15,14.29,1.42,21.14,4.37,23.6,7.5,47.32,9.4,71.24,1.71,21.61,1.87,43.27,2.27,64.92.11,5.89-1.08,7.06-6.9,7.07-38.66.01-77.32.02-115.99,0-7.2,0-7.87-.8-7.79-8.2.3-27.17,1.31-54.31,3.91-81.35,2.1-21.88,5.91-43.53,9.98-65.12.95-5.01-.88-9.48-1.13-14.21-.4-7.37,3.84-14.16,1.92-21.51-.49-1.85.3-5.05-1.76-5.22-2.44-.2-1.72,3.06-2.16,4.77-6.95,27.05-13.8,54.13-20.59,81.23-2.24,8.95-3.05,9.47-12.31,7.58-4.72-.97-9.48-1.84-14.26-2.37-4.68-.52-6.09-2.95-4.84-7.14.8-2.7.94-4.86-1.03-7.37-2.09-2.67.65-15.34,3.65-17.09,2.23-1.3,2.87-2.98,3.31-5.13,2.88-14.18,5.81-28.35,8.67-42.53,4.07-20.22,8.1-40.44,12.15-60.66,2.26-11.25,4.68-22.46,6.76-33.75,1.75-9.5,4.63-13.4,14-15.06,12.99-2.3,23.87-7.98,33.86-16.61,13.8-11.92,36.32-11.43,50.95.07,3.53,2.78,7.1,5.51,10.53,8.4,6.33,5.34,14.39,5.97,21.9,7.63,8.3,1.84,13.25,5.84,14.87,14.44,3.84,20.43,8.04,40.78,12.15,61.16,3.46,17.12,7.03,34.21,10.5,51.32,1.62,7.99,3.13,16,4.66,24.01.5,2.63.76,5.34,3.86,6.45,1.17.42,1.88,1.54,2,2.71.57,5.57,5.22,11.04.14,16.81-1.37,1.55.02,3.83.53,5.75.95,3.55-.08,5.77-4.05,6.36-6.41.96-12.82,2.04-19.19,3.27-4.28.83-6.57-.86-7.56-4.94-2.64-10.82-5.32-21.63-8.02-32.43-4.51-18.05-9.02-36.1-13.57-54.13-.32-1.25-.82-2.51-2.92-3.57Zm-53.18,134.02h.02c0-16.15-.08-32.3.06-48.45.03-3.87-.07-6.23-5.22-5.17-4.01.82-7.56-2.92-7.66-6.83-.09-3.45,3.5-7.76,6.92-6.98,6.54,1.49,6.17-2.21,5.93-6.43-.13-2.32-.09-4.66-.02-6.99.07-2.32-.57-3.14-3.21-2.79-7.39.99-10.41-2.68-8.56-9.98.38-1.5,1.02-3.23-1.38-3.28-4.15-.09-8.38-.34-12.43.34-2.82.47-5.62,2.02-6.05,5.75-.58,5.11-1.54,10.19-2.14,15.3-.97,8.32-3.28,11.29-11.52,13.47-2.29.6-3.2,1.5-3.58,3.88-5.69,36.09-7.69,72.44-7.81,108.93-.01,3.47,1.04,4.66,4.54,4.62,15.81-.15,31.63-.19,47.45,0,3.86.04,4.75-1.37,4.72-4.95-.15-16.81-.07-33.63-.07-50.44Zm7.1-21.25h-.04c0,23.65.09,47.31-.08,70.96-.03,4.29,1.11,5.83,5.6,5.75,13.82-.26,27.65-.26,41.47,0,4.72.09,6.23-1.19,6.18-6.13-.37-35.51-2.55-70.87-7.58-106.04-.46-3.19-1.5-4.89-5.02-5.6-6.63-1.34-9.11-4.65-10.03-11.29-.75-5.44-1.82-10.83-2.5-16.28-.65-5.23-4.26-6.78-8.62-7.07-4.48-.3-9.02.24-13.48-.13-4.63-.39-6.04,1.25-6,5.88.2,23.32.09,46.64.09,69.95Zm-7.01-118.59h.02c0-1.17-.1-2.34.02-3.5.37-3.76-.14-6.26-4.99-4.74-2.45.77-4.58-.58-6.05-2.6-1.8-2.47-2.32-5.06-.53-7.88,1.84-2.91,4.39-3.84,7.67-3.36,1.42.21,3.2,1.68,3.87-1.22,1.23-5.32-.21-8.69-5.19-11.17-12.94-6.45-25.9-12.88-38.85-19.31-7.07-3.51-7.37-5.21-1.88-10.75,3.05-3.08,5.96-6.3,9.21-9.15,3.21-2.81,2.59-3.86-1.26-4.93-4-1.11-8.49-.91-11.95-3.38-6.25-4.48-12.7-2.27-14.32,5.38-3.68,17.41-7.26,34.83-10.8,52.27-5.59,27.54-11.06,55.11-16.67,82.64-1.8,8.82-1.94,8.9,6.99,10.5,3.59.64,4.87,2.44,4.23,5.89-.27,1.47-.44,2.97-.69,4.45-1.59,9.55-2.22,10-11.54,8.18-.82-.16-1.62-.38-2.44-.51-1.38-.22-2.24.35-2.49,1.76-.26,1.46-.15,2.67,1.66,3,2.78.51,5.53,1.21,8.33,1.56,6.88.86,6.78.67,8.49-6.19,6.59-26.45,13.47-52.82,19.91-79.3,2.29-9.43,6.66-18.62,4.42-28.8-.61-2.76-1.17-5.55-1.42-8.36-.2-2.19-.89-5,2.6-5.46,3.31-.44,3.83,2.2,4.21,4.46,2.59,15.41,5.13,30.83,7.54,46.26.93,5.98,2.74,7.22,8.59,5.02,1.56-.58,3.1-1.79,4.71-.84,4.22,2.48,8.78,1.29,13.21,1.48,3.26.14,4.44-1.03,3.33-4.6-1.58-5.08,2.36-10.21,7.26-8.98,5.43,1.36,5-1.45,4.84-4.82-.05-1,0-2,0-3Zm6.81-7.24h-.04c0,7.83-.03,15.65.02,23.48.01,1.94-.3,4.69,2.36,4.8,6.63.28,13.38.65,19.89-.29,2.85-.41,5.09-.84,7.93.15,5.7,1.98,7.71.33,8.25-5.68,1.43-15.93,5.97-31.37,7.66-47.27.23-2.16,1.83-3.2,3.9-3.03,2.27.19,3.02,1.84,2.85,3.92-.11,1.32-.42,2.62-.57,3.94-.78,7.04-2.77,14.04-.14,21.16,1.26,3.41,2.06,7,2.95,10.54,6.51,25.95,12.91,51.93,19.5,77.86,3.24,12.77,3.38,12.72,16.31,9.43,1.62-.41,3.64-.48,3.02-2.92-.54-2.15-2.26-1.87-4.04-1.61-10.53,1.48-10.53,1.45-12.19-9.06-.21-1.31-.59-2.6-.81-3.91-.5-2.99.77-4.8,3.75-5.38,1.47-.29,2.94-.61,4.42-.8,3.61-.46,4.68-2.3,3.85-5.87-1.57-6.8-2.83-13.68-4.21-20.53-4.72-23.3-9.47-46.59-14.16-69.9-3.29-16.3-6.45-32.63-9.8-48.92-1.43-6.95-8.49-9.35-13.95-5.14-1.51,1.17-3.62,1.63-5.51,2.2-2.06.62-4.23.91-6.31,1.48-4.93,1.37-4.97,1.51-1.25,5.34,2.89,2.99,5.9,5.88,8.77,8.89,5.4,5.66,5.04,7.23-2.09,10.62-12.01,5.71-23.96,11.56-36.01,17.18-3.09,1.44-4.56,3.2-4.41,6.83.29,7.48.09,14.98.09,22.47Zm-5.12-89.23c-4.72-.31-9.25.62-13.86,1.42-4.82.83-5.58,3.29-4.63,7.36,3.14,13.38,9.39,25.48,15.49,37.63.78,1.56,1.92,2.9,3.58.43,8.21-12.21,15.06-25.03,18.13-39.59.69-3.28-.64-4.99-3.92-5.57-4.91-.87-9.76-2.18-14.79-1.67Zm4.7,53.28c.35.31.71.62,1.06.93,11.14-5.42,22.25-10.89,33.44-16.21,2.51-1.2,2.31-2.35.64-3.99-5.49-5.39-10.98-10.78-16.72-16.42-4.09,13.09-11.17,24.43-18.42,35.69Zm-13.7.05c.33-.36.66-.72,1-1.08-4.99-10.98-10.81-21.6-14.68-33.08-.62-1.85-1.84-.81-2.66,0-4.94,4.93-9.85,9.89-14.75,14.85-1.44,1.46-1.68,2.81.49,3.9,10.21,5.12,20.41,10.26,30.61,15.39Zm23.63,70.96c-2.98,0-5.97.18-8.93-.05-3.02-.23-4.23,1.06-4.32,3.92-.09,2.97.89,4.7,4.24,4.64,5.95-.11,11.91-.07,17.86,0,3.2.04,4.33-1.45,4.33-4.57,0-3.1-1.39-4.07-4.25-3.95-2.97.12-5.95.03-8.93.02ZM107.82,6.78c-5.79.56-12,1.45-17.46,5.07-.99.65-2.19,1.41-1.55,2.72.67,1.39,1.97.62,3.06.33,10.82-2.86,21.67-2.62,32.53-.25,1.23.27,2.73,1.32,3.34-.58.55-1.68-1.15-2.2-2.22-2.85-5.27-3.21-11.16-4.07-17.71-4.44Zm-38.82,156c-.05-2.04.08-3.66-2.19-3.62-2.14.04-2.71,1.43-3,3.25-1.09,6.72-2.31,13.41-3.37,20.13-.22,1.43-1.69,3.56.81,4.19,2,.5,3.64-.93,4.02-2.91,1.38-7.16,2.56-14.37,3.73-21.05Zm79.18.78c.94,5.72,1.97,12.29,3.12,18.83.29,1.64.87,3.34,2.57,4.06,1.85.78,3.48.67,3.02-2.02-1.26-7.37-2.59-14.73-3.95-22.08-.31-1.66-.83-3.41-3.1-3.15-2.28.27-1.62,2.07-1.66,4.35ZM67.55,30.01c5.28,1.5,9.89,2.72,14.42,4.15,2.3.73,2.25-.59,2-2-.63-3.58-1.68-7.09-1.77-10.78-.05-1.93-1.39-2.31-2.7-1.22-3.8,3.14-8.22,5.56-11.95,9.85Zm81.74-.48c-4.23-3.37-8.04-6.46-11.92-9.47-1.29-1-2.32-.41-2.43,1.08-.35,4.41-2.26,8.64-1.67,13.55,4.98-2.53,10.54-2.17,16.02-5.15Zm-61.44,114.52c-.93,0-1.6.05-2.26,0-3.14-.26-5.37.05-5.31,4.29.06,4.3,2.5,4.34,5.52,4.21,1.15-.05,2.33-.12,3.47.02,3.89.5,4.74-1.5,4.71-4.95-.04-5.31-3.94-3-6.13-3.57Zm-19.26-.02c-3.26-.26-5.96-.29-5.96,4.29,0,4.33,2.64,4.1,5.54,4.26,3.3.19,5.31-.58,5.3-4.49,0-3.72-1.81-4.56-4.88-4.06Zm80.96-.01c-3.51.17-6.78-.9-6.79,4.11-.02,4.71,2.79,4.38,5.9,4.45,3.05.06,5.44.14,5.45-4.23.01-4.19-1.94-4.75-4.56-4.32Zm51.93,52.7c1.58-.22,2.95-.25,4.21-.63,1.98-.59,4.6-.77,3.65-4.07-.81-2.83-2.62-3.04-5.04-2.07-1.07.43-2.25.61-3.39.84-1.69.33-3.5.55-2.91,3,.46,1.91,1.23,3.57,3.48,2.93Zm-194.03-3.55c1.1,4.08,5.1,2.72,8,3.49,2.56.69,3.59-1.18,3.37-3.03-.58-4.83-5.21-2.7-7.88-3.97-2.13-1.01-3.14,1.01-3.49,3.5Zm94.76-40.43c.93-3.17,1.51-6.35-.26-9.54-1.05,3.17-1.46,6.35.26,9.54Z"/>
  </g>
</svg>