<?xml version="1.0" encoding="UTF-8"?>
<svg id="_레이어_2" data-name="레이어 2" xmlns="http://www.w3.org/2000/svg" viewBox="0 0 281.55 302.05">
  <defs>
    <style>
      .cls-1 {
        fill: #231815;
        fill-rule: evenodd;
      }
    </style>
  </defs>
  <g id="_图层_1" data-name="图层 1">
    <path class="cls-1" d="m70.26,131.3c-5.64,16.71-11.17,33.06-16.66,49.43-6.03,17.96-12.07,35.92-18,53.92-1.35,4.12-3.29,5.62-7.75,3.9-7.59-2.92-15.34-5.45-23.11-7.86-4.23-1.31-5.5-3.6-4.32-7.84,12.84-46.13,25.61-92.28,38.38-138.43,4.3-15.54,8.53-31.1,12.81-46.64,1.58-5.72,4.9-9.62,10.96-11.05,11.65-2.75,23.23-5.78,34.89-8.47,3.23-.75,6.15-1.72,7.89-4.64,5.97-10,16.28-11.28,26.25-12.91,9.32-1.52,18.63-.46,27.77,1.74,6.6,1.59,12.51,4.44,16.25,10.57,1.95,3.2,4.96,4.5,8.6,5.31,11.52,2.58,22.95,5.57,34.45,8.28,6.22,1.46,9.68,5.54,11.31,11.4,5.93,21.3,11.8,42.61,17.67,63.92,8.08,29.33,16.13,58.66,24.2,87.99,3.09,11.22,6.15,22.45,9.35,33.64,1.04,3.66-.21,5.7-3.69,6.85-8.04,2.67-16.08,5.35-24.05,8.22-3.95,1.42-6.09.58-7.49-3.64-10.58-31.87-21.3-63.69-32.07-95.49-.78-2.29-.7-6.59-3.34-6.18-2.72.42-1.57,4.55-1.69,7.06-1.28,26.83-.59,53.53,2.81,80.28,3.17,24.96,2.69,50.22,2.93,75.38.04,4.49-1.66,6.01-6.22,5.99-45.16-.14-90.32-.15-135.47,0-5,.02-6.43-2.04-6.36-6.51.55-33.49,1.78-66.9,5.81-100.21,2.39-19.69,1.16-39.61-.11-59.41-.09-1.46-.12-3.01-2.01-4.61Zm72.64-23.87c1.67-.91,2.55-2.55,3.64-4,11.65-15.61,21.75-32.19,30.82-49.41,1.61-3.05,4.46-5.97,4.04-9.4-.37-2.99-4.26-3.83-6.47-5.77-2.42-2.14-2.55-4.02.03-6.14,5.09-4.16,5.08-4.26.74-8.94-.74-.8-1.25-2.28-2.67-1.79-1.36.47-1.05,1.94-1.14,3.05-.54,6.48-1.48,12.87-3.37,19.11-5.85,19.29-14.07,37.58-22.94,55.62-1.2,2.43-3.51,4.59-2.6,7.76-.67-.09-1.26,0-1.46.77-.03.1.13.25.21.38.39-.41.78-.83,1.18-1.24Zm-20.33,36.45c.7.46,1.08.79,1.52,1,5.4,2.53,7.28,5.64,6.02,9.96-1.15,3.96-4.54,5.82-10.03,4.86-3.12-.54-2.9,1.28-2.93,3.12-.11,5.5-.01,11-.26,16.49-.17,3.72.45,5.41,4.94,4.63,4.93-.86,8.56,2.83,8.5,7.51-.06,4.69-3.74,8.16-8.7,7.23-4.22-.79-4.78.84-4.76,4.36.15,28.99.28,57.98.17,86.97-.02,4.58,1.66,5.6,5.85,5.53,13.5-.21,27-.08,40.5-.08,13.17,0,26.33-.01,39.5.03,3.11.01,5.6-.21,5.48-4.43-.65-22.15-.76-44.31-2.87-66.4-.33-3.49-1.67-4.54-4.99-4.4-4.66.21-9.34.19-13.99-.04-5.3-.27-8.18-3.38-8.34-8.62-.06-2,.15-4,.07-6-.14-3.77,1.48-5.51,5.36-5.4,5,.15,10-.06,15,.06,3.15.08,4.48-.74,3.99-4.31-.7-5.1-.82-10.29-1.05-15.44-1.33-29.39,3.22-58.53,3.9-87.83.02-.82.09-1.69.37-2.45.56-1.51,1.56-2.62,3.35-2.41,1.7.2,2.75,1.28,2.91,2.94.14,1.48-.1,3-.01,4.49.41,7.24-1.33,14.43,1.2,21.76,9.5,27.49,18.55,55.13,27.76,82.72,3.11,9.3,6.21,18.61,9.28,27.92,1.02,3.1,2.37,4.68,6.1,3.04,4.55-2,9.36-3.45,14.14-4.87,3.05-.91,3.76-2.23,2.87-5.43-5.93-21.13-11.61-42.32-17.41-63.49-6.32-23.08-12.65-46.17-19.04-69.23-4.48-16.18-9.15-32.3-13.57-48.5-.96-3.51-3.11-5.52-6.33-6.33-8.39-2.12-16.84-3.98-25.26-5.99-2.74-.65-5.19-1.27-3.93,3.16.38,1.34-.53,2.7-1.74,3.36-3.69,2.01-2.92,4.01.03,5.75,3.75,2.21,3.68,4.88,1.91,8.42-12.46,24.94-26.97,48.58-44.44,70.34-6.96,8.67-13.99,17.28-21.04,25.98Zm8.67-31.38c1.8-3.78,5.95-6.39,2.1-11.13-13.78-16.92-26.33-34.75-38.66-52.74-3.66-5.34-3.74-6.16,1.36-10.12,2.43-1.89,2.63-3.07-.1-4.73-1.52-.92-3.29-2.27-2.42-4.41,1.4-3.46-.32-3.29-2.73-2.72-8.74,2.06-17.49,4.08-26.22,6.14-4.04.95-6.05,3.87-7.08,7.62-3.7,13.46-7.37,26.93-11.06,40.4-7.48,27.26-14.96,54.51-22.45,81.76-5.33,19.4-10.63,38.81-16.06,58.18-.74,2.65-.3,3.94,2.46,4.77,4.13,1.25,8.13,2.94,12.21,4.37,7,2.46,6.96,2.42,9.28-4.54,10.55-31.54,21.25-63.03,31.62-94.63,2.87-8.75,7.41-17.18,6.31-26.96-.46-4.12-.26-8.32-.28-12.49,0-1.88.87-3.2,2.89-3.45,2.23-.27,2.9,1.28,3.24,3,.26,1.29.3,2.64.37,3.97.43,7.82.67,15.65,1.3,23.45,2.07,25.74,4.47,51.48,1.5,77.31-.39,3.37.28,5.01,4.08,4.71,3.48-.28,6.99-.06,10.49-.06,10.61-.02,10.77.14,10.39,10.97-.21,5.95-2.95,8.87-8.92,9.11-4.16.17-8.36.31-12.49-.05-4.76-.42-6.41,1.5-6.7,6.13-1.37,21.46-2.37,42.92-2.41,64.43,0,3.5,1.26,4.74,4.66,4.7,8.83-.11,17.67-.28,26.49.07,4.81.19,6.18-1.35,6.15-6.18-.19-43,.05-86-.26-128.99-.06-8.49,1.06-16.01,6.55-22.76,2.59-3.2,4.28-7.12,6.49-10.65,1.89-3.01,3.75-5.44-2.26-5.76-3.59-.2-5.79-3.24-6.03-6.97-.22-3.5,1.55-6.06,4.7-7.57,3.36-1.6,6.16-.4,8.58,2,1.03,1.02,1.79,2.3,2.95,3.83Zm4.41-93.34c-2.99.23-5.98.43-8.96.71-10.97,1.01-12.43-2.08-9.88,13.49,3.23,19.78,15.09,35.6,24.51,52.53,1.59,2.85,3,1.84,4.06-.49,1.86-4.08,3.78-8.14,5.48-12.28,6.19-15.05,12.65-30.01,14.67-46.42.52-4.18-.43-6.29-4.95-6.47-8.31-.33-16.58-1.64-24.93-1.07Zm-26.53,2c-3.18,1.49-4,3.63-5.48,5.13-2.17,2.19-1.79,3.73.93,5.39,5.19,3.17,5.15,4.49.39,8.25-.78.62-1.59,1.21-2.43,1.74-2.49,1.53-2.73,3.09-.97,5.65,10.94,15.88,22.24,31.49,34.13,46.66.78,1,1.29,2.69,4.04,2.62-12.92-24.21-30.48-46.01-30.6-75.43Zm36.45-14.13c-9.3-.24-18.61-.35-27.36,3.69-1.2.55-2.78.91-2.16,2.71.53,1.53,2.01.9,3.04.75,14.44-2.1,28.87-2.15,43.31,0,1.12.17,2.9.98,3.22-1.09.27-1.78-1.43-1.98-2.6-2.5-5.54-2.47-11.36-3.63-17.44-3.57Zm-58.62,207.08v-.03c2.5,0,5.01.18,7.49-.05,2.43-.23,3.16-2.02,3.15-4.29-.01-2.22-1.33-2.9-3.21-2.91-4.66-.04-9.33-.12-13.98,0-2.55.07-3.18,1.98-3.32,4.17-.16,2.48,1.18,3.19,3.38,3.12,2.16-.06,4.33-.01,6.49-.01Zm107.63-.04v.06c1.83,0,3.66,0,5.49,0,2.02-.01,4.31.2,4.23-2.81-.08-2.78-1.02-4.77-4.46-4.59-3.98.21-7.98.09-11.98.04-2.19-.03-3.55.75-3.53,3.12.02,2.21.7,4.02,3.27,4.15,2.32.12,4.66.03,6.99.03Z"/>
  </g>
</svg>